<svg xmlns="http://www.w3.org/2000/svg" viewBox="0 0 396.85 413.86"><defs><style>.cls-1,.cls-5,.cls-6{fill:none;}.cls-2{fill:#fff;}.cls-3{fill:#f9da1b;}.cls-4,.cls-7{fill:#453630;}.cls-5{stroke:#fff;stroke-width:0;}.cls-5,.cls-6{stroke-linecap:round;stroke-linejoin:round;}.cls-6{stroke:#453630;stroke-width:8px;}.cls-7{font-size:32px;font-family:Raleway-Medium, Raleway;font-weight:500;}</style></defs><g id="Calque_1" data-name="Calque 1"><path class="cls-1" d="M123.75,185.76c-1.75.6-3.45,1.16-5.12,1.67,1.67-.51,3.37-1.06,5.12-1.67Z"/><path class="cls-1" d="M171.73,193.71a4.32,4.32,0,0,1-.34.39,4.32,4.32,0,0,0,.34-.39Z"/><polygon class="cls-1" points="169.13 196.55 169.13 196.55 170.26 198.42 169.13 196.55"/><path class="cls-1" d="M87.36,181.79l.14.19Z"/><path class="cls-1" d="M169.13,196.55a36.26,36.26,0,0,1-7.22,5.4h0A36.26,36.26,0,0,0,169.13,196.55Z"/><path class="cls-1" d="M171.4,200.29c-.29,4.6-.69,9.12-1.07,13.64,0,0,0,.09,0,.14h0s0-.09,0-.14c.38-4.52.78-9,1.07-13.64.08-1.3.15-2.61.21-3.92-.06,1.31-.13,2.62-.21,3.92Z"/><path class="cls-1" d="M59.3,144.42l0,0,8.36,6.06-8.36-6.07h0c-.07.75-.09,1.51-.15,2.28,0,.34,0,.69-.07,1,0-.35.05-.7.07-1C59.21,145.94,59.23,145.17,59.3,144.42Z"/><polygon class="cls-1" points="71.72 215.76 71.67 215.75 71.72 215.77 71.72 215.76"/><path class="cls-1" d="M63,122a142.67,142.67,0,0,0-3.67,22.42A142.67,142.67,0,0,1,63,122Z"/><path class="cls-1" d="M58.8,155.65v.13a2.53,2.53,0,0,1,0,.28C58.8,155.93,58.8,155.79,58.8,155.65Z"/><path class="cls-1" d="M58.79,156.84a2.26,2.26,0,0,1,0,.26v.13C58.8,157.1,58.8,157,58.79,156.84Z"/><path class="cls-1" d="M114,195.9a6.14,6.14,0,0,0-1.26,1h0a6.14,6.14,0,0,1,1.26-1,28.67,28.67,0,0,0,7.35-6.49,25.54,25.54,0,0,0,2.26-3.46,25.25,25.25,0,0,1-2.27,3.46A28.46,28.46,0,0,1,114,195.9Z"/><path class="cls-1" d="M63.15,121.43l-.12.46s0,0,0,0,0,0,0,0Z"/><polygon class="cls-1" points="118.63 187.43 118.63 187.43 121.36 189.41 118.63 187.43"/><path class="cls-1" d="M104.3,214.76,143.17,230h0c1.6-.22,3.23-.42,4.85-.62-1.62.2-3.25.4-4.85.62Z"/><path class="cls-1" d="M65.43,199.53c.7,2.21,1.47,4.4,2.28,6.57-.81-2.17-1.58-4.36-2.28-6.57Z"/><path class="cls-1" d="M89.11,183.73c-.17-.16-.32-.35-.48-.52C88.79,183.38,88.94,183.57,89.11,183.73Z"/><path class="cls-1" d="M101.46,189.58c.61.07,1.21.15,1.84.18a44.66,44.66,0,0,0,14.57-2.11,44.66,44.66,0,0,1-14.57,2.11c-.63,0-1.23-.11-1.84-.18a20.56,20.56,0,0,1-9.6-3.59,20.56,20.56,0,0,0,9.6,3.59Z"/><path class="cls-1" d="M113.47,199.1c5.51,4.76,11.35,8.38,17.93,9.83l7.18,4.64-7.18-4.64a29.42,29.42,0,0,0,7.57.68,29.42,29.42,0,0,1-7.57-.68c-6.58-1.45-12.42-5.07-17.93-9.83a3.26,3.26,0,0,1-.91-1.1A3.26,3.26,0,0,0,113.47,199.1Z"/><polygon class="cls-1" points="160.29 227.98 160.29 227.98 137.75 217.72 160.29 227.98"/><path class="cls-1" d="M161.53,227.85a5.84,5.84,0,0,1,3.95-5.66A5.84,5.84,0,0,0,161.53,227.85Z"/><path class="cls-1" d="M159.51,203.23a86.8,86.8,0,0,1-8.78,3.76l-.38.15.38-.15A86.8,86.8,0,0,0,159.51,203.23Z"/><rect class="cls-1" x="156.59" y="203.43" height="23.05" transform="translate(-109.35 215.54) rotate(-54.05)"/><polygon class="cls-1" points="85.54 179.29 58.92 162.09 58.92 162.09 85.54 179.29 85.54 179.29"/><polygon class="cls-1" points="163.51 27.42 162.21 19.55 162.21 19.55 162.21 19.55 163.51 27.42"/><path class="cls-1" d="M194.3,14.29c2-.1,4.1-.15,6.17-.16q-3.09,0-6.17.16h0c-1.29.06-2.56.16-3.84.26h0c-.71.06-1.42.08-2.12.15.7-.07,1.41-.09,2.12-.15C191.74,14.45,193,14.35,194.3,14.29Z"/><path class="cls-1" d="M152,22.82l-.64.24c-.71.27-1.41.56-2.11.84.7-.28,1.4-.57,2.11-.84Z"/><path class="cls-1" d="M160.38,20.07l.91-.28-.92.28c-.69.21-1.39.4-2.09.62-.94.29-1.87.63-2.8.95.94-.32,1.86-.66,2.8-.95C159,20.47,159.68,20.27,160.38,20.07Z"/><path class="cls-1" d="M201.49,14.12h0Z"/><path class="cls-1" d="M198.36,49.81c.26.53.51,1,.77,1.56-.26-.51-.51-1-.77-1.56Z"/><path class="cls-1" d="M206.23,14.24v0c-1.57-.07-3.16-.08-4.74-.09,1.58,0,3.17,0,4.74.09Z"/><path class="cls-1" d="M193.47,56.07a27.18,27.18,0,0,0,3.29,1.19c.45-1.84.19-3.76.72-5.6-.53,1.84-.27,3.76-.72,5.6A27.18,27.18,0,0,1,193.47,56.07Z"/><path class="cls-1" d="M185.37,52.05q.81.38,1.59.78-.78-.4-1.59-.78Z"/><path class="cls-1" d="M202.62,56.44a8.9,8.9,0,0,0,.95.74,5,5,0,0,0,1.28.66,5.4,5.4,0,0,1-1.28-.66A8.9,8.9,0,0,1,202.62,56.44Z"/><path class="cls-1" d="M136.92,79,121.64,38.36a142.29,142.29,0,0,1,23.68-12.84h0a142.29,142.29,0,0,0-23.68,12.84h0Z"/><path class="cls-1" d="M107.76,49.06l-.31.25h0Z"/><path class="cls-1" d="M85,74.25c-.42.57-.84,1.15-1.24,1.73l-.57.84.57-.84C84.13,75.4,84.55,74.82,85,74.25Z"/><path class="cls-1" d="M79.93,81.81h0c.55-.89,1.12-1.77,1.7-2.65-.58.88-1.15,1.76-1.7,2.65Z"/><path class="cls-1" d="M79.35,82.81A140.63,140.63,0,0,0,71,98.73a140.63,140.63,0,0,1,8.32-15.92Z"/><path class="cls-1" d="M68.11,105.73h0c-.06.15-.11.31-.17.47l-.15.41.15-.42C68,106,68.05,105.88,68.11,105.73Z"/><polygon class="cls-1" points="85.37 124.14 68.12 105.75 68.12 105.75 68.12 105.74 68.12 105.75 85.37 124.14"/><path class="cls-1" d="M65.13,114.33c0-.12.07-.24.11-.36.14-.45.3-.88.45-1.33,0-.14.1-.29.15-.44,0,.15-.11.3-.15.44-.15.45-.31.88-.45,1.33-.06.18-.1.36-.16.54.06-.18.1-.36.16-.54C65.2,114.09,65.17,114.21,65.13,114.33Z"/><path class="cls-1" d="M121.32,38.58a.6.6,0,0,1-.13.09l-.27.2.27-.2A.38.38,0,0,0,121.32,38.58Z"/><path class="cls-1" d="M90.38,67.07l30,49.3-30-49.3h0c-.31.39-.61.79-.92,1.17.31-.38.61-.78.92-1.16Z"/><path class="cls-1" d="M115.3,42.93l-.25.18-.17.14.17-.14Z"/><path class="cls-1" d="M107.46,49.33h0A143.17,143.17,0,0,0,90.38,67.07,143.17,143.17,0,0,1,107.46,49.33Z"/><polygon class="cls-1" points="308.11 198.3 308.11 198.3 308.34 196.34 308.11 198.3"/><rect class="cls-1" x="241.47" y="169.75" height="0.76" transform="translate(-51.82 205.21) rotate(-41.99)"/><path class="cls-1" d="M215.86,142.54h0c0-2,0-3.57.09-4.79C215.87,139,215.86,140.53,215.86,142.54Z"/><path class="cls-1" d="M74.18,220.84c-.33-.64-.63-1.28-1-1.92.32.64.62,1.28,1,1.92.5,1,1,2,1.52,3s1.18,2.1,1.78,3.14c-.6-1-1.21-2.08-1.78-3.14S74.68,221.83,74.18,220.84Z"/><polygon class="cls-1" points="241.25 170.59 241.37 170.93 242.2 173.41 241.37 170.93 241.25 170.59"/><path class="cls-1" d="M216,150.57a4.37,4.37,0,0,1-.14-.9A4.37,4.37,0,0,0,216,150.57Z"/><rect class="cls-1" x="246.13" y="182.94" height="0.45"/><polygon class="cls-1" points="257.36 193.88 257.36 193.88 254.33 196.81 257.36 193.88"/><polygon class="cls-1" points="263.96 187.49 259.43 191.87 260.17 198.3 260.17 198.3 259.43 191.87 263.96 187.49"/><rect class="cls-1" x="260.43" y="206.43" width="14.16" transform="matrix(0.84, -0.54, 0.54, 0.84, -69.13, 177.25)"/><polygon class="cls-1" points="257.88 198.3 257.6 195.95 257.88 198.3 257.88 198.3"/><path class="cls-1" d="M219.42,150.74c-1.38,1.13-2.71,1.44-3.27.18.56,1.26,1.89,1,3.27-.18a36.08,36.08,0,0,0,3.26-3.17l1.23-1.32-1.23,1.32A36.08,36.08,0,0,1,219.42,150.74Z"/><polygon class="cls-1" points="273.04 189.88 273.32 198.3 273.04 189.88 273.04 189.88"/><polygon class="cls-1" points="64.24 231.29 64.8 231.71 64.24 231.29 64.24 231.29"/><path class="cls-1" d="M65.58,232.29l-.14-.1.14.1c1.56,1.15,3.13,2.27,4.71,3.38-1.58-1.11-3.15-2.23-4.71-3.38Z"/><path class="cls-1" d="M59.64,198.87h0c-1.12-1.09-2.22-2.2-3.33-3.31C57.42,196.67,58.52,197.78,59.64,198.87Z"/><rect class="cls-1" x="72.27" y="230.7" height="7.23" transform="translate(-167.72 284.64) rotate(-84.7)"/><path class="cls-1" d="M85.34,243.23,83,244h0Z"/><path class="cls-1" d="M224.86,137.8l-.58-.32c-1.75-.95-3.12-1.69-4.22-2.2,1.1.51,2.47,1.25,4.22,2.2Z"/><path class="cls-1" d="M204.41,216.52a34.88,34.88,0,0,1-1.09,8.8A34.88,34.88,0,0,0,204.41,216.52Z"/><path class="cls-1" d="M199.88,195.67c.54,1.45,1,2.91,1.51,4.36-.47-1.45-1-2.91-1.51-4.36-1-2.74-2.36-1.38-3.37,0a28,28,0,0,0-1.84,2.92,28,28,0,0,1,1.84-2.92C197.52,194.29,198.88,192.94,199.88,195.67Z"/><path class="cls-1" d="M189.5,219.7A54.85,54.85,0,0,1,191,209,54.85,54.85,0,0,0,189.5,219.7Z"/><polygon class="cls-1" points="201.19 207.67 202.1 202.31 201.19 207.66 201.19 207.67"/><polygon class="cls-1" points="193.33 206.78 193.19 201.67 193.19 201.67 193.19 201.67 193.32 206.77 193.33 206.78"/><path class="cls-1" d="M224.86,137.8a15,15,0,0,1,3,1.88A15,15,0,0,0,224.86,137.8Z"/><polygon class="cls-1" points="307.85 200.58 306.97 208.2 306.66 210.91 306.97 208.2 307.85 200.58"/><polygon class="cls-1" points="289.71 192.18 290.02 182.96 290.02 182.96 289.71 192.18"/><polygon class="cls-1" points="310.16 210.91 311.69 206.35 311.69 206.35 310.16 210.91"/><path class="cls-1" d="M178.79,53.37,183.34,55l-4.55-1.61Z"/><polygon class="cls-1" points="278.97 185.61 275.29 188.26 275.2 185.61 275.28 188.26 275.45 193.2 275.29 188.26 278.97 185.61"/><path class="cls-1" d="M87.43,242.12c-.54-.72-1.07-1.45-1.6-2.18.53.73,1.06,1.46,1.6,2.18h0Z"/><polygon class="cls-1" points="258.14 200.61 258.14 200.61 254.27 203.4 258.14 200.61"/><rect class="cls-1" x="271.7" y="210.48" width="2.1" transform="translate(-62.79 132.36) rotate(-24.55)"/><polygon class="cls-1" points="317.07 190.3 316.4 192.31 317.07 190.3 319.54 182.96 319.53 182.96 317.07 190.3 317.07 190.3"/><polygon class="cls-1" points="253.14 200.58 253.14 200.58 254.27 203.4 257.28 210.91 254.27 203.4 253.14 200.58"/><polygon class="cls-1" points="275.71 201.17 276.62 200.58 275.71 201.17 275.69 200.58 275.71 201.17 275.97 209.01 275.97 209.01 275.71 201.17"/><polygon class="cls-1" points="289.71 192.18 289.71 192.18 280.18 198.3 289.71 192.18"/><polygon class="cls-1" points="291.73 200.58 291.72 200.58 291.7 201.21 291.73 200.58"/><polygon class="cls-1" points="304.37 210.91 304.55 209.33 304.36 210.91 304.37 210.91"/><polygon class="cls-1" points="309.08 170.13 309.08 170.13 308.48 175.32 309.08 170.13"/><polygon class="cls-1" points="290.45 170.13 290.45 170.13 290.2 177.52 290.45 170.13"/><polygon class="cls-1" points="273.74 210.91 273.74 210.89 273.74 210.91 273.74 210.91"/><polygon class="cls-1" points="291.69 201.86 294.49 200.58 291.69 201.86 291.69 201.86"/><polygon class="cls-1" points="306.01 196.69 306.18 195.26 306.88 189.11 306.18 195.26 306.01 196.69"/><polygon class="cls-1" points="292.54 175.83 292.38 180.68 292.38 180.68 292.54 175.83"/><polygon class="cls-1" points="292.05 190.67 292.3 183.21 292.05 190.67 291.92 194.49 292.05 190.67"/><polygon class="cls-1" points="305.56 200.58 305.56 200.58 304.67 208.25 305.56 200.58"/><path class="cls-1" d="M229.35,101.27c-2,6.93-6.41,12.27-11.86,17.27a108.71,108.71,0,0,1,10.34,6,108.71,108.71,0,0,0-10.34-6C222.94,113.54,227.39,108.2,229.35,101.27Z"/><path class="cls-1" d="M234.35,227.73l.42,0c2.21.2,4.41.43,6.59.66-2.18-.23-4.38-.46-6.59-.66Z"/><path class="cls-1" d="M228.29,157.2a12.14,12.14,0,0,1,1.76-1.83,13.12,13.12,0,0,0-1.76,1.82,8.61,8.61,0,0,0-.69,1.08,7.83,7.83,0,0,1,.69-1.07Z"/><path class="cls-1" d="M285.23,235.74q-4.65-1.08-9.41-2c-1-.2-1.95-.37-2.92-.56,1,.19,2,.36,2.92.56q4.76,1,9.41,2c8,1.87,15.84,4,23.35,6.34q-11.26-3.53-23.35-6.34Z"/><path class="cls-1" d="M259.05,230.71h0a8.58,8.58,0,0,1,.91-3.47A8.75,8.75,0,0,0,259.05,230.71Z"/><path class="cls-1" d="M294.57,231.14a2,2,0,0,0,0,.25,2,2,0,0,1,0-.25Z"/><path class="cls-1" d="M267.63,222.52a8.41,8.41,0,0,1,2.07.29h0A8.34,8.34,0,0,0,267.63,222.52Z"/><path class="cls-1" d="M327.34,168a1.45,1.45,0,0,0-.11-.29,1.54,1.54,0,0,0-1.25-.64,1.54,1.54,0,0,1,1.25.64,4.12,4.12,0,0,1,.25.82A1.44,1.44,0,0,0,327.34,168Z"/><path class="cls-1" d="M227.07,160.45h7.34a3.67,3.67,0,0,1,2,.58,3.67,3.67,0,0,0-2-.58Z"/><path class="cls-1" d="M280.6,218.53h31.29a3.78,3.78,0,0,0,3.16-1.68,3.78,3.78,0,0,1-3.16,1.68H280.6l-7.83,3.07Z"/><path class="cls-1" d="M313.28,211.18l2.11-6.28h0l5.48-16.33,6.55-19.48-6.55,19.48-5.48,16.33-2.11,6.28a3.81,3.81,0,0,1,1.58,1.17A3.81,3.81,0,0,0,313.28,211.18Z"/><polygon class="cls-1" points="260.42 226.44 260.42 226.44 256.27 228.07 260.42 226.44"/><path class="cls-1" d="M253.75,218.4a3.8,3.8,0,0,1-2.24-1.69l-17.16,11,17.16-11A3.8,3.8,0,0,0,253.75,218.4Z"/><path class="cls-1" d="M274.27,225.72a8.35,8.35,0,0,1,.94,1.4l56-12.88-56,12.88A8.35,8.35,0,0,0,274.27,225.72Z"/><path class="cls-1" d="M336.45,200.74q.75-2.31,1.43-4.65h0C337.42,197.65,337,199.2,336.45,200.74Z"/><polygon class="cls-1" points="341.73 179.08 341.7 179.09 341.7 179.09 341.73 179.08"/><path class="cls-1" d="M343.45,152.81l0-.89Z"/><path class="cls-1" d="M343.48,157.65,327.34,168l16.14-10.36h0c0-.4,0-.78,0-1.17h0c0,.4,0,.77,0,1.17Z"/><path class="cls-1" d="M302.33,222.57a8.65,8.65,0,0,0-7.08,5.22A8.65,8.65,0,0,1,302.33,222.57Z"/><path class="cls-1" d="M311.82,231.14h0a8.6,8.6,0,0,1-1,4.08A8.6,8.6,0,0,0,311.82,231.14Z"/><path class="cls-1" d="M303.21,239.75a8.54,8.54,0,0,1-4.34-1.2,8.56,8.56,0,0,0,11.91-3.3A8.61,8.61,0,0,1,303.21,239.75Z"/><path class="cls-1" d="M315,241.91l-6.44.17,6.44-.17h0a143.87,143.87,0,0,0,8.57-12.83h0A143.87,143.87,0,0,1,315,241.91Z"/><path class="cls-1" d="M294.89,233.34a5.39,5.39,0,0,0,.22.68l-1.46.26,1.46-.26A5.39,5.39,0,0,1,294.89,233.34Z"/><path class="cls-1" d="M311.82,231.12l5.89-1-5.89,1v0Z"/><path class="cls-1" d="M223.92,219a5.53,5.53,0,0,1-1-3A5.53,5.53,0,0,0,223.92,219Z"/><path class="cls-1" d="M327.2,233.68l-.57.88c-2.17,3.48-4.46,6.88-6.91,10.15,2.45-3.27,4.74-6.67,6.91-10.15Z"/><path class="cls-1" d="M71.66,215.75c.1.22.21.42.32.63-.11-.21-.22-.41-.32-.63Z"/><path class="cls-1" d="M202,277.82c-6.36,0-12.69-.29-19-.82C189.28,277.53,195.61,277.82,202,277.82Z"/><path class="cls-1" d="M319.72,244.71c4-2.41,7.94-4.91,11.81-7.57-3.87,2.66-7.82,5.16-11.81,7.57l-1.15.7h0Z"/><path class="cls-1" d="M356.5,251.73h0a278.87,278.87,0,0,0,32.74-30.45h0A279.66,279.66,0,0,1,356.5,251.73Z"/><path class="cls-1" d="M376.6,221.65q-10.55,0-21.05-1.05a305.45,305.45,0,0,0-2-30.81,305.45,305.45,0,0,1,2,30.81Q366.05,221.65,376.6,221.65Z"/><path class="cls-1" d="M70.56,99.78a2.6,2.6,0,0,0,.1-.25A2.6,2.6,0,0,1,70.56,99.78Z"/><polygon class="cls-1" points="162.2 19.52 162.2 19.52 162.2 19.54 162.2 19.52"/><polygon class="cls-1" points="340.27 230.86 343.22 234.65 340.27 230.86 340.27 230.86"/><polygon class="cls-1" points="320.46 78.82 320.46 78.82 320.46 78.83 320.46 78.82"/><path class="cls-1" d="M338.74,232h0c-1.13.84-2.28,1.67-3.42,2.5,1.14-.83,2.29-1.66,3.42-2.5l.41-.29.41-.31-.41.31Z"/><polygon class="cls-1" points="236.31 179.18 236.31 179.18 236.31 179.18 224.49 198.46 236.31 179.18"/><path class="cls-1" d="M221.36,200c.1,1,.2,2,.29,3.06h0C221.56,202.07,221.46,201.05,221.36,200Z"/><path class="cls-1" d="M228.6,221.89,247.9,208h0l-19.31,13.9h0a6.59,6.59,0,0,1,3.45,4.69A6.61,6.61,0,0,0,228.6,221.89Z"/><path class="cls-1" d="M219.44,180.79l4.76-12.7h0l-4.77,12.7q1,9.61,1.93,19.24h0Q220.43,190.42,219.44,180.79Z"/><path class="cls-1" d="M234.35,151.77c1.76-1.46,3.53-2.91,5.33-4.31C237.88,148.86,236.11,150.31,234.35,151.77Z"/><path class="cls-1" d="M226.49,220.81a15.63,15.63,0,0,1,2,1h0A16.32,16.32,0,0,0,226.49,220.81Z"/><polygon class="cls-1" points="227.44 186.12 233.51 172.2 234.91 175.69 233.51 172.2 231.85 168.09 233.5 172.2 227.44 186.12"/><polygon class="cls-1" points="285.02 167.08 337.67 116.09 337.67 116.09 337.68 116.08 337.68 116.08 337.66 116.09 285.02 167.08"/><path class="cls-1" d="M218.28,168.09a4.73,4.73,0,0,0,0,1c.37,3.52.72,7.05,1.08,10.58-.36-3.53-.71-7.06-1.08-10.58A4.73,4.73,0,0,1,218.28,168.09Z"/><polygon class="cls-1" points="241.78 192.78 240.97 190.76 238.64 184.97 240.97 190.76 241.78 192.78"/><path class="cls-1" d="M244.09,140.07a6.86,6.86,0,0,1-.59,2.84A6.86,6.86,0,0,0,244.09,140.07Z"/><path class="cls-1" d="M72,134.43c.6.68,1.22,1.35,1.88,2a30.16,30.16,0,0,0,3.79,3.09,30.16,30.16,0,0,1-3.79-3.09C73.22,135.78,72.6,135.11,72,134.43Z"/><path class="cls-1" d="M180.35,55.16a8,8,0,0,1,1.35,1.14,8,8,0,0,0-1.35-1.14,2.8,2.8,0,0,1-.58-.57A2.8,2.8,0,0,0,180.35,55.16Z"/><path class="cls-1" d="M68.69,130.59c.38.43.76.87,1.13,1.31-.37-.44-.75-.88-1.13-1.31Z"/><path class="cls-1" d="M173.25,119.18h0a5.17,5.17,0,0,0-.52.29A5.17,5.17,0,0,1,173.25,119.18Z"/><path class="cls-1" d="M67.83,131.3a4.57,4.57,0,0,0-.53,1.17c-2.35,8.42.53,15.38,6.43,21.17a15.17,15.17,0,0,1,2.32,2.92h0a15.17,15.17,0,0,0-2.32-2.92c-5.9-5.79-8.78-12.75-6.43-21.17a4.57,4.57,0,0,1,.53-1.17,1.36,1.36,0,0,1,.32-.31A1.36,1.36,0,0,0,67.83,131.3Z"/><path class="cls-1" d="M250.34,22.85l0,0,0,0-.5-.18.2.08Z"/><path class="cls-1" d="M249.84,22.67l-.21-.07.41.15Z"/><path class="cls-1" d="M237.31,18.76c1.88.49,3.73,1,5.58,1.59-1.85-.57-3.7-1.1-5.58-1.59-.72-.19-1.46-.35-2.18-.53l-.6-.15.6.15C235.85,18.41,236.59,18.57,237.31,18.76Z"/><path class="cls-1" d="M224.78,68.36h0l8.56-50.54h0a142.5,142.5,0,0,0-23.64-3.41,142.5,142.5,0,0,1,23.64,3.41Z"/><path class="cls-1" d="M186.66,54.44a1.82,1.82,0,0,1,.26,1.07A1.82,1.82,0,0,0,186.66,54.44Z"/><path class="cls-1" d="M156.09,84a5.49,5.49,0,0,0-.84.42A5.49,5.49,0,0,1,156.09,84Z"/><path class="cls-1" d="M81.22,171.17a66.75,66.75,0,0,1-3.3-10.11,15.72,15.72,0,0,0-1.72-4.23,15.38,15.38,0,0,1,1.71,4.23A67.92,67.92,0,0,0,81.22,171.17Z"/><path class="cls-1" d="M157.17,96.48c-.12-.06-.25-.12-.36-.19-.26-.17-.5-.35-.74-.53.24.18.48.36.74.53C156.92,96.36,157.05,96.42,157.17,96.48Z"/><path class="cls-1" d="M154.53,85a4.49,4.49,0,0,1,.65-.5A4.49,4.49,0,0,0,154.53,85Z"/><path class="cls-1" d="M170.08,66.92h0c.9-.84,1.48-1.61,1.44-2.41C171.56,65.31,171,66.08,170.08,66.92Z"/><path class="cls-1" d="M158.11,83.57a7.21,7.21,0,0,0-2,.46,7.21,7.21,0,0,1,2-.46l-8.88-40.31Z"/><polygon class="cls-1" points="163.59 108.44 163.59 108.44 165.54 117.31 163.59 108.44"/><path class="cls-1" d="M127.67,128.39h0a65.45,65.45,0,0,1,11.84-5.6h0A65.45,65.45,0,0,0,127.67,128.39Z"/><path class="cls-1" d="M102.62,142.54h0a44.1,44.1,0,0,0,6-2.35c.39-.19.77-.41,1.16-.6-.39.19-.77.41-1.16.6A44.1,44.1,0,0,1,102.62,142.54Z"/><path class="cls-1" d="M84.57,142.9,63.23,122.23,84.57,142.9h0a29.32,29.32,0,0,0,18.05-.36A29.32,29.32,0,0,1,84.57,142.9Z"/><path class="cls-1" d="M152.19,119.72a63.8,63.8,0,0,1,6.81-.57,63.8,63.8,0,0,0-6.81.57Z"/><path class="cls-1" d="M169.11,119.54l-1.43-.12,1.43.12c1,.11,2,.14,3.08.15a.3.3,0,0,0,.16,0,.3.3,0,0,1-.16,0C171.16,119.68,170.13,119.65,169.11,119.54Z"/><path class="cls-1" d="M172.07,118.16a40.31,40.31,0,0,1-3.36-3.15A40.31,40.31,0,0,0,172.07,118.16Z"/><path class="cls-1" d="M211.47,55a.62.62,0,0,1,0,.3c-.23,1.12-1.39,2.22-1.42,3.28,0-1.06,1.19-2.17,1.43-3.28A.79.79,0,0,0,211.47,55Z"/><path class="cls-1" d="M275.75,35.23l-1.16-.72-.21-.14h0l.21.14Z"/><path class="cls-1" d="M223.85,67.92a3.08,3.08,0,0,1-.61-.31A3.08,3.08,0,0,0,223.85,67.92Z"/><path class="cls-1" d="M234.59,94.29a7.07,7.07,0,0,1-1.45,1.27A7.07,7.07,0,0,0,234.59,94.29Z"/><path class="cls-1" d="M14.86,221.09h0a286,286,0,0,0,32.47.58A286,286,0,0,1,14.86,221.09Z"/><path class="cls-1" d="M286.67,42.75c-1.2-.9-2.39-1.81-3.61-2.67l-1.13-.81,1.13.81C284.28,40.94,285.47,41.85,286.67,42.75Z"/><polygon class="cls-1" points="237.91 131.55 274.37 34.38 274.37 34.38 274.37 34.38 237.91 131.55 237.91 131.55"/><path class="cls-1" d="M320.45,78.84c2.3,3.52,4.42,7.16,6.41,10.89-2-3.73-4.11-7.37-6.41-10.89Z"/><path class="cls-1" d="M268.65,31.12a142,142,0,0,0-18.11-8.19h0A142,142,0,0,1,268.65,31.12Z"/><path class="cls-1" d="M237.74,162.49h0L289.17,44.63a144.41,144.41,0,0,1,14.56,13.19,144.41,144.41,0,0,0-14.56-13.19h0Z"/><path class="cls-1" d="M312.77,68.19l.61.77.72.91-.71-.91-.8-1,.8,1C313.18,68.7,313,68.45,312.77,68.19Z"/><path class="cls-1" d="M288.41,44l.4.29-.4-.29c-1.75-1.36-3.54-2.68-5.35-4,1.22.86,2.41,1.77,3.61,2.67C287.25,43.18,287.84,43.59,288.41,44Z"/><path class="cls-1" d="M320,78.09l.25.36-.25-.36c-.58-.87-1.16-1.73-1.75-2.58s-1.14-1.61-1.71-2.4q.87,1.19,1.71,2.4C318.81,76.36,319.39,77.22,320,78.09Z"/><path class="cls-1" d="M219.16,58c-.73,2.3-3.15,2.39-4,4.4C216,60.39,218.43,60.3,219.16,58Z"/><path class="cls-1" d="M223.24,67.61c-2.58-2-5.44-3.56-8.06-5.21C217.8,64.05,220.66,65.65,223.24,67.61Z"/><path class="cls-1" d="M224.37,70.81a4.45,4.45,0,0,0,.85-.7,4.45,4.45,0,0,1-.85.7l-.14.09.14-.09Z"/><path class="cls-1" d="M233.26,84.34a3.78,3.78,0,0,1,2.14,1.55A3.78,3.78,0,0,0,233.26,84.34Z"/><path class="cls-1" d="M228.19,78.19c-.15-2.3-.64-3.89-2-5.09,1.32,1.2,1.81,2.79,2,5.09a6.46,6.46,0,0,0,5.08,6.15A6.44,6.44,0,0,1,228.19,78.19Z"/><path class="cls-1" d="M224.17,70.94h0a1.26,1.26,0,0,0,.1.47,1.8,1.8,0,0,0,.24.52,1.93,1.93,0,0,1-.24-.52A1.26,1.26,0,0,1,224.17,70.94Z"/><path class="cls-1" d="M219.16,58c-1.75.4-3.15.72-4.59,1C216,58.72,217.41,58.4,219.16,58Z"/><path class="cls-1" d="M210.49,59.62a1.43,1.43,0,0,1-.39-.69,1.43,1.43,0,0,0,.39.69c1,1.1,2.69-.31,4.08-.6C213.18,59.31,211.5,60.72,210.49,59.62Z"/><path class="cls-1" d="M211.33,54.53a6.88,6.88,0,0,0-2.54,1.92A6.88,6.88,0,0,1,211.33,54.53Z"/><path class="cls-1" d="M331.88,100.09c.24.56.48,1.11.71,1.66-.23-.55-.47-1.1-.71-1.66.24.56.48,1.11.71,1.66.78,1.87,1.53,3.75,2.23,5.66.08.2.14.41.22.61.59,1.64,1.14,3.29,1.67,5,.09.27.16.53.25.79-.09-.26-.16-.52-.25-.79.09.27.16.53.25.79.14.43.27.87.4,1.3-.21-.7-.42-1.39-.65-2.09-.53-1.66-1.08-3.31-1.67-5-.08-.2-.14-.41-.22-.61-.7-1.91-1.45-3.79-2.22-5.66l-.72-1.66c-.21-.5-.42-1-.64-1.5h0C331.46,99.08,331.67,99.59,331.88,100.09Z"/><path class="cls-1" d="M77,274.56a3,3,0,0,1-.32.91,4.13,4.13,0,0,1-.31.42,4.13,4.13,0,0,0,.31-.42A3,3,0,0,0,77,274.56Z"/><polygon class="cls-1" points="160.61 310.97 151.23 298.75 160.61 310.97 160.61 310.97"/><polygon class="cls-1" points="223.55 311.28 222.15 293.3 226.01 292.99 222.15 293.3 223.55 311.28"/><polygon class="cls-1" points="129.4 290.7 129.4 290.7 131.49 283.17 129.4 290.7"/><polygon class="cls-1" points="126.66 300.55 128.75 293.01 126.66 300.55 126.66 300.55"/><polygon class="cls-1" points="144.12 307.78 144.12 307.78 146.28 296.58 144.12 307.78"/><polygon class="cls-1" points="152.71 304.52 157.13 310.3 157.43 310.36 157.13 310.3 152.71 304.52"/><polygon class="cls-1" points="147.53 302.71 148.3 298.74 148.3 298.74 147.53 302.71"/><polygon class="cls-1" points="221.16 311.46 219.75 293.48 221.16 311.46 217.29 311.77 217.46 314.15 217.29 311.77 221.16 311.46"/><polygon class="cls-1" points="137.64 295.49 138.05 294 137.64 295.49 137.64 295.49"/><polygon class="cls-1" points="225.84 290.61 220.77 291 225.84 290.61 225.84 290.61"/><polygon class="cls-1" points="138.83 303.93 138.83 303.93 138.36 305.63 138.83 303.93"/><polygon class="cls-1" points="144.32 284.25 144.32 284.25 143.67 286.56 144.32 284.25"/><path class="cls-1" d="M117.83,286.5h0a3.78,3.78,0,0,1-1-.09A3.78,3.78,0,0,0,117.83,286.5Z"/><path class="cls-1" d="M121.34,277.52a6.34,6.34,0,0,0-1.56-.85L115,274.94l4.76,1.73A6.34,6.34,0,0,1,121.34,277.52Z"/><path class="cls-1" d="M120.3,288.29a5.94,5.94,0,0,1-2.33.59A5.94,5.94,0,0,0,120.3,288.29Z"/><path class="cls-1" d="M122.25,286.86a6.59,6.59,0,0,1-2,1.43,6.46,6.46,0,0,0,2-1.43,6.12,6.12,0,0,0,1.3-2.14,5.77,5.77,0,0,0,.25-1,5.77,5.77,0,0,1-.25,1A6.21,6.21,0,0,1,122.25,286.86Z"/><polygon class="cls-1" points="123.71 302.21 130.95 304.22 123.71 302.21 123.71 302.21"/><path class="cls-1" d="M123.91,282.27a6.59,6.59,0,0,0-.57-2.35,6.47,6.47,0,0,0-1-1.43,6.47,6.47,0,0,1,1,1.43A6.65,6.65,0,0,1,123.91,282.27Z"/><path class="cls-1" d="M165.87,298.32l0-.14Z"/><path class="cls-1" d="M166.79,296.11l-.07.14.07-.14Z"/><path class="cls-1" d="M166.08,297.69c.07-.19.13-.38.21-.57C166.21,297.31,166.15,297.5,166.08,297.69Z"/><polygon class="cls-1" points="250.17 310.29 250.17 310.29 244.65 305.14 250.17 310.29"/><path class="cls-1" d="M181.28,312.07a11.29,11.29,0,0,1-1.78.6A11.29,11.29,0,0,0,181.28,312.07Z"/><path class="cls-1" d="M168.79,293.49h0Z"/><polygon class="cls-1" points="232.02 290.07 232.02 290.07 248.99 305.89 232.02 290.07"/><path class="cls-1" d="M167.47,295a11.86,11.86,0,0,1,1.29-1.53A11.86,11.86,0,0,0,167.47,295Z"/><polygon class="cls-1" points="150.35 288.18 148.86 295.86 150.35 288.18 150.35 288.18"/><path class="cls-1" d="M148.86,295.85l6.51,1.26h0Z"/><path class="cls-1" d="M158.3,290a3.78,3.78,0,0,1,1.06,1.05,4,4,0,0,1,.58,1.38,4,4,0,0,0-.58-1.38A3.78,3.78,0,0,0,158.3,290a3.88,3.88,0,0,0-1.44-.59L151,288.3l5.88,1.14A3.88,3.88,0,0,1,158.3,290Z"/><polygon class="cls-1" points="231.77 300.81 230.11 290.36 231.06 290.22 230.11 290.36 231.77 300.81"/><path class="cls-1" d="M159.64,298.5a6.58,6.58,0,0,1-2.22.95,6.38,6.38,0,0,0,2.22-.95,6.66,6.66,0,0,0,1.7-1.73,6.37,6.37,0,0,0,.59-1.09,6.37,6.37,0,0,1-.59,1.09A6.66,6.66,0,0,1,159.64,298.5Z"/><path class="cls-1" d="M183,311.15a11.65,11.65,0,0,1-1.66.9A11.65,11.65,0,0,0,183,311.15Z"/><polygon class="cls-1" points="248.49 287.45 248.49 287.45 246.13 287.82 248.99 305.89 246.13 287.82 248.49 287.45"/><polygon class="cls-1" points="236.06 312.53 234.69 312.75 236.06 312.53 233.2 294.47 233.2 294.47 236.06 312.53"/><path class="cls-1" d="M160,294a4.26,4.26,0,0,1-.59,1.45,3.45,3.45,0,0,1-.46.54,3.45,3.45,0,0,0,.46-.54A4.26,4.26,0,0,0,160,294a4.19,4.19,0,0,0,0-1.54A4.19,4.19,0,0,1,160,294Z"/><path class="cls-1" d="M72.11,261.13a3.24,3.24,0,0,1,.7-.82A3.24,3.24,0,0,0,72.11,261.13Z"/><path class="cls-1" d="M74,257.09A7.41,7.41,0,0,1,75.3,257,7.41,7.41,0,0,0,74,257.09Z"/><path class="cls-1" d="M66,271.2a3.86,3.86,0,0,0,.3,1.6A3.86,3.86,0,0,1,66,271.2Z"/><path class="cls-1" d="M74.18,266.81a5.77,5.77,0,0,1-1.4-1.19A5.59,5.59,0,0,0,74.18,266.81Z"/><polygon class="cls-1" points="75.19 267.42 75.21 267.39 74.38 266.92 75.21 267.39 75.19 267.42"/><path class="cls-1" d="M74.71,259.43a3.75,3.75,0,0,0-1,.31,3.75,3.75,0,0,1,1-.31,4.65,4.65,0,0,1,1.74,0A4.65,4.65,0,0,0,74.71,259.43Z"/><polygon class="cls-1" points="84.58 277.76 84.58 277.76 84.61 277.77 84.61 277.77 84.58 277.76"/><path class="cls-1" d="M86.59,281.37a5.79,5.79,0,0,1-.06-.83,5.67,5.67,0,0,1,.14-1.17,6.46,6.46,0,0,0-.15,1.16A7.71,7.71,0,0,0,86.59,281.37Z"/><polygon class="cls-1" points="90.71 264.35 90.71 264.35 84.95 276.95 84.92 277.01 84.96 276.95 90.71 264.35"/><path class="cls-1" d="M185.1,293.83a11.45,11.45,0,0,0-2.83-2.22c-.2-.11-.41-.2-.62-.3.21.1.42.19.62.3A11.45,11.45,0,0,1,185.1,293.83Z"/><path class="cls-1" d="M81.2,266a3.38,3.38,0,0,0,.3-1.48A3.38,3.38,0,0,1,81.2,266Z"/><path class="cls-1" d="M81.14,263a5.44,5.44,0,0,0-1-1.44A5.44,5.44,0,0,1,81.14,263Z"/><path class="cls-1" d="M84,264.78a5.14,5.14,0,0,1-.31,1.66A5.14,5.14,0,0,0,84,264.78Z"/><path class="cls-1" d="M72.11,261.13a3.28,3.28,0,0,0-.43,1.48A3.28,3.28,0,0,1,72.11,261.13Z"/><path class="cls-1" d="M77.12,278.55a6.2,6.2,0,0,1-2.36,1A6.2,6.2,0,0,0,77.12,278.55Z"/><path class="cls-1" d="M77.12,278.55a5.41,5.41,0,0,0,1.29-1.28A5.41,5.41,0,0,1,77.12,278.55Z"/><polygon class="cls-1" points="83 268.01 83 268.01 81.91 267.4 83 268.01"/><path class="cls-1" d="M74.76,279.51a8.2,8.2,0,0,1-1.32.13A8.2,8.2,0,0,0,74.76,279.51Z"/><path class="cls-1" d="M86.91,278.56a5.58,5.58,0,0,0-.23.69A5.58,5.58,0,0,1,86.91,278.56Z"/><polygon class="cls-1" points="63 122.01 63 122.01 63 122.01 63 122.01"/><path class="cls-1" d="M120.49,285.24a4.25,4.25,0,0,1-.39.35,4.25,4.25,0,0,0,.39-.35,3.8,3.8,0,0,0,1-2.45,3.8,3.8,0,0,1-1,2.45Z"/><path class="cls-1" d="M74.05,277.17a1.8,1.8,0,0,0,.22-.06,1.8,1.8,0,0,1-.22.06,4.91,4.91,0,0,1-.86.05A4.91,4.91,0,0,0,74.05,277.17Z"/><path class="cls-1" d="M76,276.27a4.23,4.23,0,0,1-.41.33,3.18,3.18,0,0,1-.32.16,3.18,3.18,0,0,0,.32-.16A4.23,4.23,0,0,0,76,276.27Z"/><path class="cls-1" d="M121.41,281.57a3.58,3.58,0,0,0-.23-.65,4,4,0,0,0-.75-1.05,4.29,4.29,0,0,1,.75,1.05A3.87,3.87,0,0,1,121.41,281.57Z"/><polygon class="cls-1" points="112.42 276.54 112.42 276.54 109.76 283.9 111.94 284.68 109.76 283.9 112.42 276.54"/><path class="cls-1" d="M70.49,276.46l-1.69-1a7.64,7.64,0,0,1-.91-.62,7.64,7.64,0,0,0,.91.62Z"/><path class="cls-1" d="M119.16,286.17l.13,0c.1-.05.19-.12.29-.18-.1.06-.19.13-.29.18Z"/><path class="cls-1" d="M76.77,272.35a4.94,4.94,0,0,0-.94-1.51,5.79,5.79,0,0,0-1.49-1.19,5.79,5.79,0,0,1,1.49,1.19,5.14,5.14,0,0,1,.94,1.51,4,4,0,0,1,.3,1.61h0A4,4,0,0,0,76.77,272.35Z"/><path class="cls-1" d="M82.12,260.09a8,8,0,0,0-2.19-1.76l-.5-.29.5.29A8,8,0,0,1,82.12,260.09Z"/><path class="cls-1" d="M99.25,287.29a9.19,9.19,0,0,1-3,1.8,8.93,8.93,0,0,1-3.41.57,8.84,8.84,0,0,1-3.46-.81,9,9,0,0,1-4.54-4.63h0a9,9,0,0,0,4.54,4.63,8.67,8.67,0,0,0,3.46.81,8.93,8.93,0,0,0,3.41-.57,9.27,9.27,0,0,0,3-1.79,8.87,8.87,0,0,0,2.08-2.88L107,272.1l-5.63,12.32A8.72,8.72,0,0,1,99.25,287.29Z"/><path class="cls-1" d="M76.45,259.46a5.65,5.65,0,0,1,1.8.67l.5.29-.5-.3A5.87,5.87,0,0,0,76.45,259.46Z"/><path class="cls-1" d="M84.59,283.32c-.06-.21-.16-.42-.21-.64C84.43,282.9,84.53,283.11,84.59,283.32Z"/><polygon class="cls-1" points="99.16 283.4 104.9 270.82 104.9 270.82 99.16 283.4 99.11 283.53 99.11 283.52 99.16 283.4"/><path class="cls-1" d="M119,278.92a3.51,3.51,0,0,1,1.05.59,3.77,3.77,0,0,0-1.05-.6l-3.5-1.27Z"/><polygon class="cls-1" points="138.28 293.17 133.84 291.94 138.28 293.18 138.28 293.17"/><path class="cls-1" d="M72.51,257.58a6,6,0,0,0-.9.48,5,5,0,0,0-.7.59,5,5,0,0,1,.7-.59A6,6,0,0,1,72.51,257.58Z"/><path class="cls-1" d="M172.44,309.48a9.1,9.1,0,0,1-1.18-.81,9.1,9.1,0,0,0,1.18.81,8.52,8.52,0,0,0,2.13.84A8.52,8.52,0,0,1,172.44,309.48Z"/><path class="cls-1" d="M291.68,298.51a8.93,8.93,0,0,0,3.32-.57,8.93,8.93,0,0,1-3.32.57Z"/><path class="cls-1" d="M277.89,295.86a11.58,11.58,0,0,1-.95,3.74A11.58,11.58,0,0,0,277.89,295.86Z"/><polygon class="cls-1" points="280.84 278.86 278.6 279.69 280.84 278.86 280.84 278.86"/><path class="cls-1" d="M285.93,292.4a6.18,6.18,0,0,0,1.14,1.7A6.18,6.18,0,0,1,285.93,292.4Z"/><path class="cls-1" d="M300.85,289.9a9.31,9.31,0,0,1-.81,3.36A9.31,9.31,0,0,0,300.85,289.9Z"/><path class="cls-1" d="M194.37,309.54a9.27,9.27,0,0,1-1-3.16h0a9.14,9.14,0,0,0,2.92,5.74,8.81,8.81,0,0,0,1,.78,9.72,9.72,0,0,1-1-.78A9.35,9.35,0,0,1,194.37,309.54Z"/><path class="cls-1" d="M196.31,308.09c.12.26.27.5.41.74-.14-.24-.29-.48-.41-.74a6.09,6.09,0,0,1-.53-2.54V291.62h0v13.93A6.25,6.25,0,0,0,196.31,308.09Z"/><polygon class="cls-1" points="193.39 291.63 194.58 291.62 193.38 291.63 193.38 305.48 193.38 306.38 193.39 306.38 193.39 305.48 193.39 291.63"/><polygon class="cls-1" points="283.74 293.51 283.78 293.5 283.78 293.5 283.74 293.51"/><path class="cls-1" d="M369.23,270.43C298.77,323.4,211,339,130.34,317.26,211,339,298.77,323.4,369.23,270.43L340,232.84Z"/><path class="cls-1" d="M204.8,314.12a9,9,0,0,1-2.39.33,9.19,9.19,0,0,1-1.75-.17,9.19,9.19,0,0,0,1.75.17A9,9,0,0,0,204.8,314.12Z"/><path class="cls-1" d="M121.17,314.63l-.17-.05Z"/><polygon class="cls-1" points="317.06 268.64 338.29 278.07 317.06 268.64 317.06 268.64"/><polygon class="cls-1" points="339.97 277.17 329.25 257.02 339.97 277.17 339.97 277.17"/><polygon class="cls-1" points="317.17 286.14 317.66 287.23 317.17 286.14 313.62 287.74 313.62 287.74 317.17 286.14"/><polygon class="cls-1" points="309.76 269.7 308.15 270.42 309.76 269.7 308.76 267.52 302.37 270.41 308.76 267.52 309.76 269.7"/><polygon class="cls-1" points="335.72 274.29 327.04 270.44 335.72 274.29 335.72 274.29"/><polygon class="cls-1" points="311.44 288.73 304.02 272.29 311.44 288.73 307.89 290.33 308.53 291.74 307.89 290.33 311.44 288.73"/><polygon class="cls-1" points="311.58 283.23 306.21 271.3 306.21 271.3 311.58 283.23"/><rect class="cls-1" x="308.43" y="290.42" width="10.19" transform="translate(-91.66 154.52) rotate(-24.27)"/><polygon class="cls-1" points="300.47 273.89 304.02 272.29 300.47 273.89 300.47 273.89"/><path class="cls-1" d="M259,299.86a9.1,9.1,0,0,1-.84-1.61A9.1,9.1,0,0,0,259,299.86Z"/><polygon class="cls-1" points="184.13 312.53 185.26 313.93 187.12 312.43 187.12 312.43 185.26 313.93 184.13 312.53"/><path class="cls-1" d="M272.72,288.39a9.43,9.43,0,0,0-1.67-1.29A9.43,9.43,0,0,1,272.72,288.39Z"/><path class="cls-1" d="M267.77,286a9.21,9.21,0,0,1,3.28,1.14A9.21,9.21,0,0,0,267.77,286Z"/><polygon class="cls-1" points="179.28 304.68 180.21 303.93 180.21 303.93 179.28 304.68"/><path class="cls-1" d="M259.57,285.91a11.3,11.3,0,0,0-2.88,3.3A11.43,11.43,0,0,1,259.57,285.91Z"/><path class="cls-1" d="M175.5,292.64a7.73,7.73,0,0,0-1.35.29,9.35,9.35,0,0,0-3,1.64,9.35,9.35,0,0,1,3-1.64A7.93,7.93,0,0,1,175.5,292.64Z"/><path class="cls-1" d="M257.64,293.65a9.24,9.24,0,0,1,.56-2.11A9.24,9.24,0,0,0,257.64,293.65Z"/><path class="cls-1" d="M183.78,295.89a8.55,8.55,0,0,1,1,1.62,8.55,8.55,0,0,0-1-1.62,9.28,9.28,0,0,0-2.66-2.23,8.27,8.27,0,0,0-1.79-.75,8.27,8.27,0,0,1,1.79.75A9.28,9.28,0,0,1,183.78,295.89Z"/><path class="cls-1" d="M185.58,299.65a9.37,9.37,0,0,1,.18,1.2A9.37,9.37,0,0,0,185.58,299.65Z"/><path class="cls-1" d="M275.44,296.23a9,9,0,0,0-.2-3.63,9.48,9.48,0,0,0-.63-1.69,9.48,9.48,0,0,1,.63,1.69A9,9,0,0,1,275.44,296.23Z"/><path class="cls-1" d="M183.34,307.77A10.29,10.29,0,0,0,184,307a10.29,10.29,0,0,1-.66.82Z"/><path class="cls-1" d="M209,305.58c0,.09,0,.18,0,.27,0-.09,0-.18,0-.27Z"/><path class="cls-1" d="M184.84,309.65a11.78,11.78,0,0,0,2.23-3.15h0a11.9,11.9,0,0,1-2.23,3.16Z"/><path class="cls-1" d="M175.54,290.27a11.3,11.3,0,0,0-2.08.43,12,12,0,0,0-2.23,1,12,12,0,0,1,2.23-1A11.3,11.3,0,0,1,175.54,290.27Z"/><path class="cls-1" d="M260.31,301.37a9.52,9.52,0,0,0,1.71,1.34,9.31,9.31,0,0,0,3.25,1.13,9.31,9.31,0,0,1-3.25-1.13A9.89,9.89,0,0,1,260.31,301.37Z"/><polygon class="cls-1" points="269.87 297.09 270.57 295.89 274.85 298.38 274.85 298.38 270.57 295.89 269.87 297.09"/><path class="cls-1" d="M277.93,294.89a11.93,11.93,0,0,0-.37-2.89,12.06,12.06,0,0,0-.66-1.8,12.06,12.06,0,0,1,.66,1.8A11.93,11.93,0,0,1,277.93,294.89Z"/><path class="cls-1" d="M198.61,310.87a4.94,4.94,0,0,0,.55.32A4.94,4.94,0,0,1,198.61,310.87Z"/><path class="cls-1" d="M274.82,287.1a11.23,11.23,0,0,0-2.57-2,11.5,11.5,0,0,0-1.37-.66,11.5,11.5,0,0,1,1.37.66A11.23,11.23,0,0,1,274.82,287.1Z"/><path class="cls-1" d="M169.7,296.08a8.63,8.63,0,0,0-.8,1.17,7.59,7.59,0,0,0-.54,1.2,7.59,7.59,0,0,1,.54-1.2A8.63,8.63,0,0,1,169.7,296.08Z"/><path class="cls-1" d="M210.69,309a9,9,0,0,1-1.93,2.85A9,9,0,0,0,210.69,309Z"/><path class="cls-1" d="M211.4,305.48h0a8.64,8.64,0,0,1-.41,2.65A8.64,8.64,0,0,0,211.4,305.48Z"/><path class="cls-1" d="M273,304.33a11.16,11.16,0,0,0,2.14-2A11.16,11.16,0,0,1,273,304.33Z"/><path class="cls-1" d="M204.93,311.55a7.44,7.44,0,0,0,1.32-.76A7.44,7.44,0,0,1,204.93,311.55Z"/><path class="cls-1" d="M175.63,312.94a11.2,11.2,0,0,1-4.33-1.35l0,0,0,0a11.2,11.2,0,0,0,4.33,1.35,11.71,11.71,0,0,0,1.87,0A11.71,11.71,0,0,1,175.63,312.94Z"/><path class="cls-1" d="M168,303.65c0,.2.09.39.15.59a9.23,9.23,0,0,0,.58,1.37,9.23,9.23,0,0,1-.58-1.37C168.12,304,168.07,303.85,168,303.65Z"/><path class="cls-1" d="M165.42,302.42a10.75,10.75,0,0,0,.45,2.52c.1.31.22.61.34.9-.12-.29-.24-.59-.34-.9A10.75,10.75,0,0,1,165.42,302.42Z"/><path class="cls-1" d="M265.3,283.61a10.85,10.85,0,0,0-1.67.3,13,13,0,0,0-1.41.48,13,13,0,0,1,1.41-.48A10.85,10.85,0,0,1,265.3,283.61Z"/><path class="cls-1" d="M78.42,270.18a6.62,6.62,0,0,1,1,2.15A6.62,6.62,0,0,0,78.42,270.18Z"/><path class="cls-1" d="M188.12,302.77a12.78,12.78,0,0,1-.24,1.4,12.78,12.78,0,0,0,.24-1.4,11.39,11.39,0,0,0-.16-3.41A11.39,11.39,0,0,1,188.12,302.77Z"/><path class="cls-2" d="M14.86,221.09h0a286,286,0,0,0,32.47.58,304.36,304.36,0,0,1,3.25-32c1.88,2,3.8,4,5.73,5.94,1.11,1.11,2.21,2.22,3.33,3.31-.14-.45-.26-.9-.39-1.35s-.26-.91-.38-1.36q-3.67-3.66-7.25-7.51l-2-2.18-.46,2.92c-1.58,10.25-2.62,20.37-3.19,30.9-3.28.11-6.57.17-9.83.17-7,0-13.93-.25-21.17-.8l-3.59-.26,2.43,2.66a281.28,281.28,0,0,0,33.54,31.11l.87-1.13A278.82,278.82,0,0,1,14.86,221.09Z"/><path class="cls-3" d="M64.24,231.29h0l.56.42.56.42.08.06.14.1h0l9.35.88a147,147,0,0,1-15.29-34.3c-1.12-1.09-2.22-2.2-3.33-3.31-1.93-1.94-3.85-3.9-5.73-5.94a304.36,304.36,0,0,0-3.25,32,286,286,0,0,1-32.47-.58h0A278.82,278.82,0,0,0,48.22,252h0l8-10.37,8-10.38Z"/><path class="cls-2" d="M350.71,192.78c.94-1,1.88-2,2.82-3a305.45,305.45,0,0,1,2,30.81q10.5,1.05,21.05,1.05,6.31,0,12.64-.37h0a278.87,278.87,0,0,1-32.74,30.45l.88,1.13a280.6,280.6,0,0,0,32.91-30.62l2.37-2.6-3.51.21c-4.19.25-8.42.37-12.59.37-6.54,0-13.13-.3-19.6-.91-.19-10.09-.86-19.8-2-29.68l-.37-3.09-2.1,2.29c-3.13,3.37-6.33,6.58-9.57,9.72-.14.47-.29.94-.43,1.4s-.28.94-.43,1.4C345,198.58,347.87,195.74,350.71,192.78Z"/><path class="cls-3" d="M338.74,232h0l.41-.29.41-.31.71-.52h0l3,3.79,13.28,17.08a279.66,279.66,0,0,0,32.74-30.45h0q-6.32.38-12.64.37-10.55,0-21.05-1.05a305.45,305.45,0,0,0-2-30.81c-.94,1-1.88,2-2.82,3-2.84,3-5.73,5.8-8.66,8.57h0a147.4,147.4,0,0,1-14.49,31.77L338.74,232Z"/><path class="cls-2" d="M65.58,232.29c1.56,1.15,3.13,2.27,4.71,3.38q1.78,1.25,3.58,2.46L68.67,234h0l7.2.67c-.31-.5-.64-1-.94-1.48h0l-9.35-.88Z"/><path class="cls-4" d="M68.67,234l5.2,4.15h0q3.84,2.61,7.75,5-3-4.15-5.76-8.52l-7.2-.67Z"/><path class="cls-2" d="M335.87,233.63l-4.34,3.51q1.91-1.3,3.79-2.66c1.14-.83,2.29-1.66,3.42-2.5h0l-11.18,1.14h0l-.36.56-.57.88Z"/><path class="cls-4" d="M335.87,233.63l-9.24.93c-2.17,3.48-4.46,6.88-6.91,10.15,4-2.41,7.94-4.91,11.81-7.57Z"/><path class="cls-4" d="M53.38,156.28a147.82,147.82,0,0,0,5.49,39.88c.12.45.26.9.38,1.36s.25.9.39,1.35h0a147,147,0,0,0,15.29,34.3h0c.3.5.63,1,.94,1.48h0q2.75,4.36,5.76,8.52h0L83,244l2.34-.76,2.34-.76h0l-.28-.35h0c-.54-.72-1.07-1.45-1.6-2.18q-3.45-4.75-6.52-9.79h0c-.34-.57-.65-1.16-1-1.73-.21-.37-.41-.75-.63-1.12-.67-1.15-1.34-2.31-2-3.49.64,1.18,1.31,2.34,2,3.49-.07-.11-.13-.23-.2-.35-.6-1-1.21-2.07-1.78-3.14s-1-2-1.52-3c-.33-.64-.63-1.28-1-1.92s-.64-1.27-.94-1.91l-.31-.63c-.11-.21-.22-.41-.32-.63h.06q-2.18-4.74-4-9.66c-.81-2.17-1.58-4.36-2.28-6.57h0l-.06-.22q-1.21-3.86-2.22-7.82c-.08-.31-.14-.63-.22-.95q-.85-3.48-1.53-7c0-.21-.1-.41-.14-.62l0,0h0a144.17,144.17,0,0,1-2.35-20.82h0c-.06-1.57-.09-3.16-.1-4.75v-.1c0-.25,0-.51,0-.76s0-.54,0-.82v0q0-2.91.15-5.82c0-.35,0-.69.07-1,0-.7.08-1.4.13-2.09,0,.69-.09,1.39-.13,2.09l.06-1c0-.35.05-.7.07-1,.06-.77.08-1.53.15-2.28h0A142.67,142.67,0,0,1,63,122h0s0-.05,0-.08,0,0,0,0l.12-.46c.09-.35.19-.69.28-1,.51-2,1.05-3.94,1.65-5.88.06-.18.1-.36.16-.54.14-.45.3-.88.45-1.33,0-.14.1-.29.15-.44l0-.11-.18.55c.28-.87.57-1.73.87-2.59.39-1.15.8-2.3,1.23-3.44l.15-.41c.06-.16.11-.32.17-.47h0c.77-2,1.59-4,2.44-6a2.6,2.6,0,0,0,.1-.25c.12-.27.25-.53.37-.8a140.63,140.63,0,0,1,8.32-15.92l0,0h0c.2-.33.41-.64.61-1h0c.55-.89,1.12-1.77,1.7-2.65.32-.49.62-1,1-1.48l.57-.85.57-.84c.4-.58.82-1.16,1.24-1.73s.81-1.17,1.23-1.74.78-1.09,1.18-1.62c.68-.9,1.38-1.78,2.08-2.66.31-.38.61-.78.92-1.17h0a143.17,143.17,0,0,1,17.08-17.74h0l.31-.25.3-.25c.56-.49,1.13-1,1.69-1.43s1.43-1.18,2.15-1.77l1.36-1.09c.54-.42,1.07-.85,1.62-1.27l.17-.14.25-.18,1.08-.81-1.33,1c1.92-1.46,3.88-2.88,5.87-4.24l.27-.2a.6.6,0,0,0,.13-.09l.32-.23h0a142.29,142.29,0,0,1,23.68-12.84v0h0l1-.4.89-.37c.7-.29,1.41-.56,2.11-.83s1.4-.57,2.11-.84l.64-.24.64-.23c.93-.34,1.87-.64,2.8-.95s1.86-.66,2.8-.95c.7-.22,1.4-.41,2.09-.62l.92-.28.91-.27h0v0h0a142.49,142.49,0,0,1,26.13-4.84h0c.7-.07,1.41-.09,2.12-.15h.1c1.21-.08,2.42-.19,3.64-.25h.1q3.07-.15,6.17-.16l.67,0h.35c1.58,0,3.17,0,4.74.09v0c1.16,0,2.32.1,3.47.17a142.5,142.5,0,0,1,23.64,3.41h0v0l1.18.29.6.15c.72.18,1.46.34,2.18.53-.72-.19-1.46-.35-2.18-.53.72.18,1.46.34,2.18.53,1.88.49,3.73,1,5.58,1.59l1.49.47c1.66.53,3.32,1.09,5,1.68l.3.1.21.07-.51-.17.51.17.5.18,0,0,.16.05h0a142,142,0,0,1,18.11,8.19c1.93,1.05,3.84,2.13,5.72,3.26h0l.21.14c2.34,1.41,4.62,2.89,6.86,4.43l-.74-.5.75.5.47.33,1.13.81c1.81,1.28,3.6,2.6,5.35,4l.4.29.37.28h0a144.41,144.41,0,0,1,14.56,13.19c1.42,1.49,2.82,3,4.18,4.54h0l.07.07c.16.19.32.39.49.58-.17-.19-.33-.39-.49-.58.86,1,1.71,2,2.54,3l.32.38c.59.72,1.17,1.45,1.75,2.18l.8,1,.71.91.52.65c.64.85,1.26,1.72,1.89,2.59s1.15,1.59,1.71,2.4,1.17,1.71,1.75,2.58l.25.36.25.37h0c2.3,3.52,4.42,7.16,6.41,10.89,1.54,2.91,3,5.86,4.35,8.88h0c.22.49.43,1,.64,1.5l.72,1.66c.77,1.87,1.52,3.75,2.22,5.66.08.2.14.41.22.61.59,1.64,1.14,3.29,1.67,5,.23.7.44,1.39.65,2.09l.09.28c.07.25.15.49.23.74h0l0,0a140.91,140.91,0,0,1,4.85,23.74h0c0,.15,0,.32,0,.47.1.84.18,1.69.25,2.54q.17,1.82.3,3.63c.05.69.12,1.38.16,2.07s.06,1.39.09,2.09c.05,1.17.08,2.34.1,3.52,0,.7,0,1.39,0,2.09,0,.08,0,.16,0,.24h0c0,.39,0,.77,0,1.17h0a142.89,142.89,0,0,1-1.78,21.44h0c-.11.69-.27,1.36-.39,2l-.18.94c-.27,1.52-.55,3-.88,4.55-.19.87-.4,1.74-.6,2.61-.45,1.9-.93,3.78-1.46,5.65-.11.4-.19.81-.31,1.21h0q-.67,2.34-1.43,4.65a140.91,140.91,0,0,1-5.2,13.5h.06c-.26.57-.55,1.12-.82,1.69-.67,1.47-1.37,2.92-2.1,4.37-.43.86-.86,1.72-1.32,2.57-.81,1.55-1.67,3.07-2.54,4.58-.31.54-.59,1.1-.9,1.63h0A143.87,143.87,0,0,1,315,241.91h0c-.34.46-.72.9-1.08,1.35-.1.14-.22.28-.33.42,1.67.56,3.31,1.15,4.95,1.73l1.15-.7c2.45-3.27,4.74-6.67,6.91-10.15l.57-.88.36-.56h0a147.4,147.4,0,0,0,14.49-31.77h0c.15-.46.29-.93.43-1.4s.29-.93.43-1.4A147.85,147.85,0,1,0,53.38,156.28Z"/><path class="cls-4" d="M275.79,35.26c-.4-.25-.79-.51-1.2-.75l1.16.72Z"/><path class="cls-2" d="M342.82,142.84q.17,1.82.3,3.63Q343,144.65,342.82,142.84Z"/><path class="cls-2" d="M341.16,182.06c-.27,1.52-.55,3-.88,4.55C340.61,185.1,340.89,183.58,341.16,182.06Z"/><path class="cls-5" d="M337,113.76c-.09-.26-.16-.52-.25-.79"/><path class="cls-2" d="M343.42,151.92l0,.89c0,.45,0,.9,0,1.34,0-1.18-.05-2.35-.1-3.52C343.39,151.06,343.41,151.49,343.42,151.92Z"/><path class="cls-5" d="M318.22,75.51c.59.85,1.17,1.71,1.75,2.58"/><path class="cls-2" d="M312.77,68.19c.2.26.41.51.62.77l-.8-1c-.58-.73-1.16-1.46-1.75-2.18C311.49,66.58,312.13,67.39,312.77,68.19Z"/><path class="cls-2" d="M308,62.43c.16.19.32.39.49.58.69.79,1.38,1.59,2,2.4C309.69,64.41,308.84,63.41,308,62.43Z"/><path class="cls-5" d="M332.59,101.75c-.23-.55-.47-1.1-.71-1.66"/><path class="cls-2" d="M255.06,218.53h-.34a3.44,3.44,0,0,1-1-.13,3.8,3.8,0,0,1-2.24-1.69l-17.16,11,.42,0Z"/><path class="cls-2" d="M260.42,226.44l-4.15,1.63-4.15,1.62c2.33.32,4.63.66,6.93,1a8.75,8.75,0,0,1,.92-3.47A9.05,9.05,0,0,1,260.42,226.44Z"/><path class="cls-2" d="M218.28,168.09a4.73,4.73,0,0,0,0,1c.37,3.52.72,7.05,1.08,10.58,0,.36.08.72.11,1.08h0l4.77-12.7Z"/><path class="cls-2" d="M327.48,168.54a1.31,1.31,0,0,1-.06.55l-6.55,19.48,20.83-9.48h0a142.89,142.89,0,0,0,1.78-21.44L327.34,168A1.44,1.44,0,0,1,327.48,168.54Z"/><path class="cls-2" d="M315.39,204.9h0l-2.11,6.28a3.86,3.86,0,0,1,2.43,3.54,3.94,3.94,0,0,1-.08.77,3.66,3.66,0,0,1-.58,1.36,3.78,3.78,0,0,1-3.16,1.68H280.6l-7.83,3.07-3.07,1.21a8.49,8.49,0,0,1,4.57,2.91,8.35,8.35,0,0,1,.94,1.4l56-12.88a140.91,140.91,0,0,0,5.2-13.5c.5-1.54,1-3.09,1.43-4.65Z"/><path class="cls-2" d="M224.49,198.46l11.82-19.28-1.4-3.49-1.4-3.49-6.07,13.92L221.36,200h0c.1,1,.2,2,.29,3.06Z"/><path class="cls-2" d="M246.47,204.42l-18,17.41h0l.1.06L247.9,208Z"/><polygon class="cls-2" points="223.04 216.01 242.59 194.79 242.59 194.79 241.78 192.78 240.97 190.76 223.04 216.01"/><path class="cls-2" d="M65.13,114.33c0-.12.07-.24.11-.36-.06.18-.1.36-.16.54-.6,1.94-1.14,3.9-1.65,5.88C64,118.35,64.51,116.33,65.13,114.33Z"/><path class="cls-2" d="M109.75,47.38c.71-.6,1.43-1.18,2.15-1.77C111.18,46.2,110.46,46.78,109.75,47.38Z"/><path class="cls-5" d="M59.15,146.7c0,.69-.09,1.39-.13,2.09"/><path class="cls-2" d="M65.69,112.64l.18-.55c.23-.68.45-1.36.69-2C66.26,110.91,66,111.77,65.69,112.64Z"/><path class="cls-2" d="M285,167.08h19.67l37.82-27.24a140.91,140.91,0,0,0-4.85-23.74h0Z"/><path class="cls-2" d="M65.35,199.3q-1.21-3.86-2.22-7.82Q64.13,195.44,65.35,199.3Z"/><path class="cls-2" d="M194.3,14.29h-.1c-1.22.06-2.43.17-3.64.25h-.1C191.74,14.45,193,14.35,194.3,14.29Z"/><path class="cls-5" d="M250,22.75l-.2-.08"/><path class="cls-5" d="M249.84,22.67l-.51-.17"/><path class="cls-5" d="M235.13,18.23c.72.18,1.46.34,2.18.53"/><path class="cls-2" d="M121.19,38.67l-.27.2c-2,1.36-4,2.78-5.87,4.24l1.33-1Q118.75,40.35,121.19,38.67Z"/><path class="cls-2" d="M280.71,38.44l.74.5c-2.24-1.54-4.52-3-6.86-4.43.41.24.8.5,1.2.75C277.45,36.29,279.09,37.34,280.71,38.44Z"/><path class="cls-5" d="M286.67,42.75c-1.2-.9-2.39-1.81-3.61-2.67"/><path class="cls-2" d="M193.19,201.67c-.18.43-.34.87-.5,1.3l.64,3.8Z"/><polygon class="cls-2" points="246.51 182.96 246.21 183.38 246.21 183.38 246.21 183.38 248.31 188.59 253.49 182.96 246.51 182.96"/><path class="cls-2" d="M202.1,202.31c-.22-.76-.46-1.52-.71-2.28l-.2,7.63Z"/><polygon class="cls-2" points="275.71 201.17 275.97 209.01 289.36 202.92 289.44 200.58 276.62 200.58 275.71 201.17"/><polygon class="cls-2" points="273.04 189.88 273.04 189.88 273.04 189.88 272.81 182.96 268.63 182.96 268.63 182.96 263.96 187.49 259.43 191.87 260.17 198.3 261.35 198.3 273.04 189.88 273.04 189.88"/><path class="cls-2" d="M137.75,217.72,160.29,228l.5,0-22.21-14.36-7.18-4.64c-6.58-1.45-12.42-5.07-17.93-9.83a3.26,3.26,0,0,1-.91-1.1,1,1,0,0,1,.2-1.11h0l-11.3-7.31h0a20.56,20.56,0,0,1-9.6-3.59,20.89,20.89,0,0,1-2.75-2.26c-.17-.16-.32-.35-.48-.52-.38-.4-.77-.8-1.13-1.23l-.14-.19c-.47-.57-.92-1.16-1.36-1.79-.16-.23-.31-.47-.46-.71h0l-26.62-17.2h0a144.17,144.17,0,0,0,2.35,20.82Z"/><polygon class="cls-2" points="252.79 198.3 257.88 198.3 257.6 195.95 257.36 193.88 254.33 196.81 252.79 198.3"/><path class="cls-2" d="M170.31,214.07h0L161.91,202h0c-.78.45-1.59.87-2.4,1.28l10.75,11.46C170.27,214.48,170.3,214.28,170.31,214.07Z"/><path class="cls-2" d="M76.05,156.56a15.17,15.17,0,0,0-2.32-2.92c-5.9-5.79-8.78-12.75-6.43-21.17a4.57,4.57,0,0,1,.53-1.17,1.36,1.36,0,0,1,.32-.31l.54-.4h0c.38.43.76.87,1.13,1.31.72.85,1.44,1.7,2.18,2.53.6.68,1.22,1.35,1.88,2a30.16,30.16,0,0,0,3.79,3.09,26.84,26.84,0,0,0,6.9,3.4L63.23,122.23,63,122h0a142.67,142.67,0,0,0-3.67,22.42l8.36,6.07Z"/><path class="cls-2" d="M127.67,128.39a65.45,65.45,0,0,1,11.84-5.6l-32-73.46h0A143.17,143.17,0,0,0,90.38,67.07l30,49.3Z"/><path class="cls-2" d="M58.78,156.48c0-.14,0-.28,0-.42a2.53,2.53,0,0,0,0-.28v-.13c0,.28,0,.54,0,.82s0,.51,0,.76v-.13a2.26,2.26,0,0,0,0-.26C58.79,156.72,58.78,156.6,58.78,156.48Z"/><polygon class="cls-2" points="278.97 185.61 282.64 182.96 275.11 182.96 275.2 185.61 275.29 188.26 278.97 185.61"/><path class="cls-2" d="M123.63,186l.12-.19c-1.75.61-3.45,1.16-5.12,1.67l2.73,2A25.25,25.25,0,0,0,123.63,186Z"/><path class="cls-2" d="M150.73,207l-.38.15-.37.14c-.92.34-1.83.64-2.72.91l18.66,13.53Z"/><path class="cls-2" d="M171.4,200.29c.08-1.3.15-2.61.21-3.92l-.74-1.69c-.57.65-1.14,1.28-1.74,1.87l1.13,1.87Z"/><path class="cls-2" d="M79.93,81.81h0c-.2.33-.41.64-.61,1h0C79.52,82.45,79.73,82.13,79.93,81.81Z"/><path class="cls-2" d="M102.62,142.54a44.1,44.1,0,0,0,6-2.35c.39-.19.77-.41,1.16-.6q3.3-1.65,6.44-3.58h0L79.35,82.81A140.63,140.63,0,0,0,71,98.73c-.12.27-.25.53-.37.8a2.6,2.6,0,0,1-.1.25c-.85,2-1.67,4-2.44,6h0l17.25,18.41Z"/><polygon class="cls-2" points="307.86 180.68 307.88 180.51 307.62 180.68 307.86 180.68"/><polygon class="cls-2" points="255.59 180.68 255.6 180.68 255.79 180.47 254.76 171.34 254.76 171.34 248.13 180.68 255.59 180.68"/><polygon class="cls-2" points="291.69 201.86 294.49 200.58 294.49 200.58 291.73 200.58 291.7 201.21 291.69 201.86"/><polygon class="cls-2" points="304.36 210.91 304.55 209.33 304.57 209.14 300.06 210.91 304.36 210.91"/><polygon class="cls-2" points="291.92 194.49 291.8 198.3 299.51 198.3 306.18 195.26 306.88 189.11 307.59 182.96 304.07 182.96 304.07 182.96 292.05 190.67 291.92 194.49"/><polygon class="cls-2" points="323.81 170.28 310.38 178.91 310.18 180.68 320.31 180.68 323.81 170.28"/><polygon class="cls-2" points="306.97 208.2 306.66 210.91 310.16 210.91 311.69 206.35 306.97 208.2"/><polygon class="cls-2" points="258.14 200.61 258.14 200.58 253.14 200.58 254.27 203.4 258.14 200.61"/><polygon class="cls-2" points="265.32 170.13 256.91 170.13 257.86 178.23 265.32 170.13"/><polygon class="cls-2" points="317.07 190.3 319.53 182.96 309.91 182.96 308.6 194.16 317.07 190.3"/><polygon class="cls-2" points="289.51 198.3 289.71 192.18 280.18 198.3 289.51 198.3"/><polygon class="cls-2" points="275.02 180.68 285.81 180.68 290.2 177.52 290.45 170.13 281.88 170.13 274.9 176.89 275.02 180.68"/><polygon class="cls-2" points="292.73 170.13 292.54 175.83 300.46 170.13 292.73 170.13"/><polygon class="cls-2" points="272.74 180.68 272.69 179.03 270.98 180.68 272.74 180.68"/><polygon class="cls-2" points="261.63 210.91 271.8 210.91 273.71 210.04 273.47 202.61 261.56 210.26 261.63 210.91"/><path class="cls-2" d="M289.17,44.63,237.74,162.49a1.75,1.75,0,0,1,.2.35l1.71,4.24h4.07L307.91,62.36c-1.36-1.55-2.76-3-4.18-4.54A144.41,144.41,0,0,0,289.17,44.63Z"/><path class="cls-2" d="M236.14,87.34a7.73,7.73,0,0,1-1.55,7l-6.76,30.21c3.47,2.23,6.8,4.59,10.08,7.05l36.46-97.17c-1.88-1.13-3.79-2.21-5.72-3.26a142,142,0,0,0-18.11-8.19Z"/><path class="cls-2" d="M228.29,157.2a7.83,7.83,0,0,0-.69,1.07,7.67,7.67,0,0,0-.84,2.18h.31Z"/><path class="cls-2" d="M170.08,66.92c.9-.84,1.48-1.61,1.44-2.41s-.67-1.6-2.17-2.53c3.9.48,7.18.25,10.4-1.59,2.42-1.38,3.35-2.54,1.95-4.09a8,8,0,0,0-1.35-1.14,2.8,2.8,0,0,1-.58-.57c-.24-.3-.53-.68-1-1.22h0L183.34,55l3.41,1.21a2.42,2.42,0,0,0,.17-.68,1.82,1.82,0,0,0-.26-1.07,8,8,0,0,0-.64-.89,2.42,2.42,0,0,1-.65-1.5h0q.81.38,1.59.78c.81.4,1.6.82,2.4,1.23l-1-39.34h0a142.49,142.49,0,0,0-26.13,4.84h0l1.3,7.87Z"/><path class="cls-2" d="M208.79,56.45a6.88,6.88,0,0,1,2.54-1.92c0,.15.11.32.14.47a.79.79,0,0,1,0,.3c-.24,1.11-1.4,2.22-1.43,3.28a1,1,0,0,0,0,.35,1.43,1.43,0,0,0,.39.69c1,1.1,2.69-.31,4.08-.6s2.84-.62,4.59-1c-.73,2.3-3.15,2.39-4,4.4,2.62,1.65,5.48,3.25,8.06,5.21a3.08,3.08,0,0,0,.61.31c.29.13.63.27.93.44l8.56-50.54a142.5,142.5,0,0,0-23.64-3.41c-1.15-.07-2.31-.13-3.47-.17l-1.14,43.69C206.7,58.38,207.77,57.46,208.79,56.45Z"/><path class="cls-2" d="M201.42,14.12h-.28l-.67,0h.95Z"/><path class="cls-2" d="M149.23,43.26l-3.91-17.74a142.29,142.29,0,0,0-23.68,12.84L136.92,79l15.27,40.68a63.8,63.8,0,0,1,6.81-.57,67.84,67.84,0,0,1,7,.12l-.43-2-1.95-8.87h0a34,34,0,0,1-4.14-10.17c-.3-1.31-1.39-1.39-2.28-1.79-.12-.06-.25-.12-.36-.19-.26-.17-.5-.35-.74-.53a7.6,7.6,0,0,1-3.15-7.3A5.42,5.42,0,0,1,154.53,85a4.49,4.49,0,0,1,.65-.5s0,0,.07,0a5.49,5.49,0,0,1,.84-.42h0a7.21,7.21,0,0,1,2-.46Z"/><path class="cls-2" d="M145.32,25.5h0l1-.4Z"/><polygon class="cls-2" points="241.85 170.13 241.09 170.13 241.25 170.59 241.37 170.93 241.85 170.13"/><path class="cls-2" d="M223.91,146.25c.44-.48.87-1,1.32-1.42,2.86-3,3.81-4,2.61-5.15a15,15,0,0,0-3-1.88l-2.18,9.77Z"/><path class="cls-2" d="M224.37,70.81l-.14.09-.06,0a1.26,1.26,0,0,0,.1.47Z"/><path class="cls-2" d="M257.79,167.08h10.33l63.09-68.47c-1.34-3-2.81-6-4.35-8.88-2-3.73-4.11-7.37-6.41-10.89Z"/><path class="cls-2" d="M71.72,215.77,136.89,231c2.09-.33,4.17-.67,6.28-1L104.3,214.76,65.43,199.53h0c.7,2.21,1.47,4.4,2.28,6.57q1.85,4.92,4,9.66Z"/><path class="cls-5" d="M77.68,227.3c-.67-1.15-1.34-2.31-2-3.49"/><path class="cls-2" d="M323.59,229.08l-5.88,1-5.89,1v0h0a8.6,8.6,0,0,1-1,4.08l0,0a8.56,8.56,0,0,1-11.91,3.3,8.71,8.71,0,0,1-3.76-4.53l-1.46.26-8.42,1.46q12.07,2.81,23.35,6.34l6.44-.17A143.87,143.87,0,0,0,323.59,229.08Z"/><path class="cls-2" d="M87.45,242.12l1.21,0c7.41-2.33,15.11-4.42,23-6.27l-32.39-5.73q3.06,5,6.52,9.79c.53.73,1.06,1.46,1.6,2.18Z"/><path class="cls-2" d="M313.62,243.68h0c.11-.14.23-.28.33-.42Z"/><polygon class="cls-3" points="290.09 180.68 290.2 177.52 285.81 180.68 290.09 180.68"/><polygon class="cls-3" points="255.82 180.68 255.79 180.47 255.6 180.68 255.82 180.68"/><polygon class="cls-3" points="323.86 170.13 311.38 170.13 310.38 178.91 323.81 170.28 323.86 170.13"/><polygon class="cls-3" points="273.04 189.88 261.35 198.3 261.35 198.3 273.32 198.3 273.04 189.88 273.04 189.88"/><polygon class="cls-3" points="307.62 180.68 307.62 180.68 307.88 180.51 307.88 180.51 308.48 175.32 309.08 170.13 300.46 170.13 300.46 170.13 292.54 175.83 292.38 180.68 307.62 180.68"/><polygon class="cls-3" points="282.65 182.96 282.64 182.96 282.64 182.96 278.97 185.61 275.29 188.26 275.45 193.2 275.62 198.3 280.18 198.3 289.71 192.18 290.02 182.96 282.65 182.96"/><polygon class="cls-3" points="257.86 178.23 258.14 180.68 270.98 180.68 272.69 179.03 272.38 170.13 265.32 170.13 257.86 178.23 257.86 178.23"/><polygon class="cls-3" points="281.88 170.13 281.88 170.13 274.68 170.13 274.9 176.89 281.88 170.13"/><path class="cls-3" d="M131.4,208.93l7.18,4.64,22.21,14.36h0l.74-.08a5.84,5.84,0,0,1,3.95-5.66c3.78-1.29,4.42-3.92,4.72-6.9l.06-.6-10.75-11.46a86.8,86.8,0,0,1-8.78,3.76l15.19,14.73h0l-18.66-13.53h0a34,34,0,0,1-8.29,1.42A29.42,29.42,0,0,1,131.4,208.93Z"/><path class="cls-3" d="M221.36,200h0l6.08-13.91,6.07-13.92-1.66-4.11H224.2l-4.76,12.7Q220.43,190.4,221.36,200Z"/><path class="cls-3" d="M228.5,221.83l18-17.41-3.88-9.63L223,216,241,190.76,238.64,185l-2.33-5.79-11.82,19.28-2.84,4.63h0c.42,4.31.85,8.62,1.25,12.94a5.53,5.53,0,0,0,1,3,6.14,6.14,0,0,0,2.57,1.8,16.32,16.32,0,0,1,2,1Z"/><path class="cls-3" d="M233.14,95.56a8.49,8.49,0,0,0-1.91,1.64,8.58,8.58,0,0,0-1.69,3.45c0,.21-.13.41-.19.62-2,6.93-6.41,12.27-11.86,17.27a108.71,108.71,0,0,1,10.34,6l6.76-30.21A7.07,7.07,0,0,1,233.14,95.56Z"/><polygon class="cls-3" points="241.37 170.93 242.2 173.41 245.13 180.68 248.13 180.68 254.76 171.34 254.62 170.13 241.86 170.13 241.86 170.13 241.85 170.13 241.37 170.93"/><path class="cls-3" d="M224.78,68.36c.72.4,1.2.94.44,1.75a4.45,4.45,0,0,1-.85.7h0l-.1.6a1.93,1.93,0,0,0,.24.52.44.44,0,0,0,.11.09,7.06,7.06,0,0,1,1.61,1.08c1.32,1.2,1.81,2.79,2,5.09a6.44,6.44,0,0,0,5.07,6.15,3.78,3.78,0,0,1,2.14,1.55,5.09,5.09,0,0,1,.74,1.45h0l14.4-64.41h0l-.16-.05,0,0-.3-.1-.41-.15-.3-.1c-1.63-.59-3.29-1.15-5-1.68l-1.49-.47c-1.85-.57-3.7-1.1-5.58-1.59-.72-.19-1.46-.35-2.18-.53l-.6-.15-1.18-.29v0h0Z"/><path class="cls-3" d="M166,119.27h0l1.71.15,1.43.12c1,.11,2,.14,3.08.15a.3.3,0,0,0,.16,0h0c.1,0,.22-.11.37-.19a5.17,5.17,0,0,1,.52-.29c-.41-.33-.79-.68-1.18-1a40.31,40.31,0,0,1-3.36-3.15,37.36,37.36,0,0,1-5.12-6.57l1.95,8.87Z"/><path class="cls-3" d="M189.36,54.06h0c1.33.7,2.68,1.39,4.11,2a27.18,27.18,0,0,0,3.29,1.19c.45-1.84.19-3.76.72-5.6a6.13,6.13,0,0,1,.88-1.85h0c.26.53.51,1,.77,1.56a15.63,15.63,0,0,0,3.49,5.07,8.9,8.9,0,0,0,.95.74,5.4,5.4,0,0,0,1.28.66c.08,0,.17.07.24.09h0l1.14-43.69v0c-1.57-.07-3.16-.08-4.74-.09h-1c-2.07,0-4.12.06-6.17.16-1.29.06-2.56.16-3.84.26-.71.06-1.42.08-2.12.15h0Z"/><path class="cls-3" d="M320.87,188.57l-5.48,16.33h0l22.49-8.81h0c.12-.4.2-.81.31-1.21.53-1.87,1-3.75,1.46-5.65.2-.87.41-1.74.6-2.61.33-1.51.61-3,.88-4.55l.18-.94c.12-.68.28-1.35.39-2h0Z"/><path class="cls-3" d="M251.18,216.15,247.9,208l-19.3,13.9a6.61,6.61,0,0,1,3.44,4.69,7.07,7.07,0,0,1,.06.94l2.25.21,17.16-11A4.56,4.56,0,0,1,251.18,216.15Z"/><path class="cls-3" d="M304.69,167.08H326a1.54,1.54,0,0,1,1.25.64,1.45,1.45,0,0,1,.11.29l16.14-10.36h0c0-.4,0-.77,0-1.17h0c0-.08,0-.16,0-.24,0-.7,0-1.39,0-2.09,0-.44,0-.89,0-1.34l0-.89c0-.43,0-.86-.05-1.29,0-.7-.05-1.39-.09-2.09s-.11-1.38-.16-2.07q-.14-1.82-.3-3.63c-.07-.85-.15-1.7-.25-2.54,0-.15,0-.32,0-.47h0Z"/><path class="cls-3" d="M243.72,167.08h14.07l62.66-88.24h0l-.25-.37-.25-.36c-.58-.87-1.16-1.73-1.75-2.58s-1.13-1.61-1.71-2.4-1.25-1.74-1.89-2.59l-.52-.65-.72-.91-.61-.77c-.64-.8-1.28-1.61-1.93-2.4l-.32-.38c-.67-.81-1.36-1.61-2-2.4-.17-.19-.33-.39-.49-.58l-.07-.07h0Z"/><path class="cls-3" d="M260.42,226.44a8.62,8.62,0,0,1,7.21-3.92,8.34,8.34,0,0,1,2.07.29h0l3.07-1.21,7.83-3.07H255.06l-20.29,9.24c2.21.2,4.41.43,6.59.66,3.62.38,7.21.79,10.76,1.26h0l4.15-1.62Z"/><path class="cls-3" d="M237.91,131.55c.53.39,1.06.76,1.58,1.16,3,2.3,4.56,4.83,4.6,7.36a6.86,6.86,0,0,1-.59,2.84,12,12,0,0,1-3.82,4.55c-1.8,1.4-3.57,2.85-5.33,4.31l-3.53,2.91c-.27.23-.52.46-.77.69a12.14,12.14,0,0,0-1.76,1.83h0l-1.22,3.25h7.34a3.8,3.8,0,0,1,3.33,2L289.17,44.63h0l-.37-.28-.4-.29c-.57-.45-1.16-.86-1.74-1.29-1.2-.9-2.39-1.81-3.61-2.67l-1.13-.81-.47-.33-.75-.5c-1.62-1.1-3.26-2.15-4.92-3.18l0,0-1.16-.72-.21-.14h0Z"/><path class="cls-3" d="M193.33,206.78h0l-.64-3.8a40.61,40.61,0,0,0-1.74,6,54.85,54.85,0,0,0-1.45,10.71,22.57,22.57,0,0,0,.86,6.55c2.78-.05,5.58-.1,8.41-.1l4.39,0c.05-.29.08-.56.16-.86a34.88,34.88,0,0,0,1.09-8.8,50.1,50.1,0,0,0-2.31-14.21l-.91,5.36h0l.2-7.63c-.47-1.45-1-2.91-1.51-4.36-1-2.73-2.36-1.38-3.37,0a28,28,0,0,0-1.84,2.92,32.24,32.24,0,0,0-1.48,3.08Z"/><path class="cls-3" d="M216,150.57a2.84,2.84,0,0,0,.13.35c.56,1.26,1.89,1,3.27-.18a36.08,36.08,0,0,0,3.26-3.17l2.18-9.77-.58-.32c-1.75-.95-3.12-1.69-4.22-2.2-3.07-1.43-3.9-.94-4.11,2.47-.08,1.22-.09,2.79-.09,4.79,0,2.18,0,4.37,0,6.56a5.24,5.24,0,0,0,0,.57A4.37,4.37,0,0,0,216,150.57Z"/><polygon class="cls-3" points="246.21 183.38 246.51 182.96 246.51 182.96 246.51 182.96 246.04 182.96 246.21 183.38 246.21 183.38"/><path class="cls-3" d="M65.43,199.53l38.87,15.23L143.18,230c1.6-.22,3.23-.42,4.85-.62,4.05-.52,8.12-1,12.26-1.39h0l-22.54-10.26L61.27,182.91h0l0,0c0,.21.1.41.14.62q.67,3.54,1.53,7c.08.32.14.64.22.95q1,4,2.22,7.82l.06.22Z"/><path class="cls-3" d="M149.23,43.26l8.88,40.31h.1c1.92-.15,2.13-1.76,2.62-3.1a30.29,30.29,0,0,1,8.7-13c.2-.17.37-.34.55-.5h0l-6.57-39.5-1.3-7.87h0v0h0l-.91.27-.91.28c-.7.2-1.4.4-2.1.62-.94.29-1.86.63-2.8.95s-1.87.61-2.8.95l-.64.23-.64.24c-.71.27-1.41.56-2.11.84s-1.41.54-2.11.83l-.89.37-1,.4h0v0h0Z"/><polygon class="cls-3" points="268.63 182.96 258.4 182.96 259.43 191.87 263.96 187.49 268.63 182.96"/><polygon class="cls-3" points="248.31 188.59 252.22 198.3 252.79 198.3 252.79 198.3 254.33 196.81 257.36 193.88 256.08 182.96 253.49 182.96 248.31 188.59"/><path class="cls-3" d="M161.91,202l8.4,12.12h0s0-.09,0-.14c.38-4.52.78-9,1.07-13.64h0l-1.14-1.87-1.13-1.87a36.26,36.26,0,0,1-7.22,5.4Z"/><path class="cls-3" d="M116.21,136c2.15-1.33,4.26-2.75,6.32-4.24,1.69-1.22,3.4-2.34,5.14-3.38h0l-7.31-12-30-49.3h0c-.31.38-.61.78-.92,1.16-.7.88-1.4,1.76-2.08,2.66-.4.53-.78,1.08-1.18,1.62s-.82,1.16-1.23,1.74S84.13,75.4,83.73,76l-.57.84-.57.85c-.33.49-.63,1-1,1.48-.58.88-1.15,1.76-1.7,2.65h0c-.2.32-.41.64-.61,1h0l0,0h0Z"/><path class="cls-3" d="M107.46,49.33l32.05,73.46h0a62.4,62.4,0,0,1,12.68-3.07h0L136.92,79,121.64,38.36h0l-.32.23a.38.38,0,0,1-.13.09q-2.44,1.68-4.81,3.45l-1.08.81-.25.18-.17.14c-.55.42-1.08.85-1.62,1.27l-1.36,1.09c-.72.59-1.44,1.17-2.15,1.77s-1.13.94-1.69,1.43l-.3.25-.31.25h0Z"/><path class="cls-3" d="M81.22,171.17a67.92,67.92,0,0,1-3.31-10.11,15.38,15.38,0,0,0-1.71-4.23c0-.09-.09-.18-.15-.27h0l-8.36-6.06-8.36-6.06,0,0c-.07.75-.09,1.52-.15,2.28,0,.34,0,.69-.07,1l-.06,1c0,.35-.06.69-.07,1q-.14,2.91-.15,5.82c0,.14,0,.28,0,.41s0,.28,0,.42,0,.24,0,.36,0,.26,0,.39v.1c0,1.59,0,3.18.1,4.75h0l26.62,17.2A49.47,49.47,0,0,1,81.22,171.17Z"/><path class="cls-3" d="M103.3,189.76c-.63,0-1.23-.11-1.84-.18h0l11.3,7.31h0a6.14,6.14,0,0,1,1.26-1,28.46,28.46,0,0,0,7.34-6.49l-2.73-2-.76.22A44.66,44.66,0,0,1,103.3,189.76Z"/><path class="cls-3" d="M63,122l.22.22L84.57,142.9a29.32,29.32,0,0,0,18.05-.36h0L85.37,124.15,68.12,105.74h0c-.06.15-.11.31-.17.46l-.15.42c-.43,1.14-.84,2.29-1.23,3.44-.24.68-.46,1.36-.69,2l0,.11c0,.15-.11.3-.15.44-.15.45-.31.88-.45,1.33,0,.12-.07.24-.11.36-.62,2-1.18,4-1.7,6.06-.09.35-.19.69-.28,1l-.12.46s0,0,0,0,0,0,0,.08h0Z"/><path class="cls-3" d="M171.73,193.71a4.32,4.32,0,0,1-.34.39c-.17.19-.35.38-.52.58l.74,1.69C171.65,195.49,171.71,194.61,171.73,193.71Z"/><polygon class="cls-3" points="254.27 203.4 257.28 210.91 259.34 210.91 258.14 200.61 254.27 203.4"/><polygon class="cls-3" points="261.56 210.25 273.47 202.6 273.41 200.58 260.43 200.58 261.56 210.25"/><polygon class="cls-3" points="304.07 182.96 292.31 182.96 292.3 183.21 292.05 190.67 304.07 182.96"/><polygon class="cls-3" points="317.07 190.3 308.6 194.16 308.6 194.16 308.34 196.34 308.11 198.3 314.39 198.3 316.4 192.31 317.07 190.3 317.07 190.3"/><polygon class="cls-3" points="307.85 200.58 306.97 208.2 311.69 206.35 311.69 206.35 313.62 200.58 307.85 200.58"/><polygon class="cls-3" points="291.69 201.86 291.39 210.91 300.05 210.91 300.06 210.91 304.57 209.14 304.57 209.14 304.67 208.25 305.56 200.58 294.49 200.58 291.69 201.86 291.69 201.86"/><path class="cls-3" d="M268.12,167.08H285l52.64-51,0,0h0c-.08-.25-.16-.49-.23-.74l-.09-.28c-.13-.43-.26-.87-.4-1.3-.09-.26-.16-.52-.25-.79-.53-1.66-1.08-3.31-1.67-5-.08-.2-.14-.41-.22-.61-.7-1.91-1.45-3.79-2.23-5.66-.23-.55-.47-1.1-.71-1.66s-.42-1-.64-1.5h0Z"/><polygon class="cls-3" points="273.74 210.91 273.74 210.89 273.71 210.04 271.8 210.91 273.74 210.91"/><polygon class="cls-3" points="276.62 200.58 275.69 200.58 275.71 201.17 276.62 200.58"/><polygon class="cls-3" points="275.97 209.01 276.03 210.91 289.09 210.91 289.36 202.92 275.97 209.01 275.97 209.01"/><polygon class="cls-3" points="299.51 198.3 305.83 198.3 306.01 196.69 306.18 195.26 299.51 198.3"/><path class="cls-3" d="M111.7,235.88h0Q123.92,233,136.89,231L71.72,215.77h0l0,0h0c.1.22.21.42.32.63l.31.63c.3.64.63,1.28.94,1.91s.62,1.28,1,1.92c.5,1,1,2,1.52,3s1.18,2.1,1.78,3.14c.07.12.13.24.2.35.22.37.42.75.63,1.12.34.57.65,1.16,1,1.73h0Z"/><path class="cls-3" d="M276.25,231.14a8.33,8.33,0,0,1-.43,2.56q4.76,1,9.41,2h0l8.42-1.46,1.46-.26a5.39,5.39,0,0,1-.22-.68,7.93,7.93,0,0,1-.3-2,2,2,0,0,1,0-.25h0a8.62,8.62,0,0,1,7.76-8.57,7.77,7.77,0,0,1,1.76,0,8.62,8.62,0,0,1,7.73,8.55l5.89-1,5.88-1h0c.31-.53.59-1.09.9-1.63.87-1.51,1.73-3,2.54-4.58.46-.85.89-1.71,1.32-2.57.73-1.45,1.43-2.9,2.1-4.37.27-.57.56-1.12.82-1.69h-.06l-56,12.88A8.52,8.52,0,0,1,276.25,231.14Z"/><path class="cls-3" d="M88.66,242.15l-1.21,0h0l.28.35Z"/><path class="cls-3" d="M313.62,243.68l.33-.42c.36-.45.74-.89,1.08-1.35h0l-6.44.17C310.27,242.61,312,243.13,313.62,243.68Z"/><path class="cls-4" d="M298.87,238.55a8.56,8.56,0,0,0,11.91-3.3l0,0a8.6,8.6,0,0,0,1-4.08h0v0a8.62,8.62,0,0,0-7.73-8.55,7.77,7.77,0,0,0-1.76,0,8.62,8.62,0,0,0-7.76,8.57h0a2,2,0,0,0,0,.25,7.93,7.93,0,0,0,.3,2,5.39,5.39,0,0,0,.22.68A8.71,8.71,0,0,0,298.87,238.55Z"/><path class="cls-4" d="M276.25,231.14a8.52,8.52,0,0,0-1-4,8.35,8.35,0,0,0-.94-1.4,8.49,8.49,0,0,0-4.57-2.91h0a8.41,8.41,0,0,0-2.07-.29,8.62,8.62,0,0,0-7.21,3.92h0a9.05,9.05,0,0,0-.45.8,8.58,8.58,0,0,0-.91,3.47c4.68.72,9.29,1.54,13.84,2.43,1,.19,2,.36,2.92.56A8.33,8.33,0,0,0,276.25,231.14Z"/><path class="cls-4" d="M183,277c6.29.53,12.62.82,19,.82,5.14,0,10.27-.17,15.36-.52a226.9,226.9,0,0,0,101.24-31.89h0c-1.64-.58-3.28-1.17-4.95-1.73h0c-1.66-.55-3.35-1.07-5-1.6-7.51-2.35-15.31-4.47-23.35-6.34q-4.65-1.08-9.41-2c-1-.2-1.95-.37-2.92-.56-4.55-.89-9.16-1.71-13.84-2.43h0c-2.3-.36-4.6-.7-6.93-1h0c-3.55-.47-7.14-.88-10.76-1.26-2.18-.23-4.38-.46-6.59-.66l-.42,0-2.25-.21a7.07,7.07,0,0,0-.06-.94,6.59,6.59,0,0,0-3.45-4.69h0l-.1-.06a15.63,15.63,0,0,0-2-1,6.14,6.14,0,0,1-2.57-1.8,5.53,5.53,0,0,1-1-3c-.4-4.32-.83-8.63-1.25-12.94h0c-.09-1-.19-2-.29-3.06q-.93-9.61-1.93-19.24h0c0-.36-.07-.72-.11-1.08-.36-3.53-.71-7.06-1.08-10.58a4.73,4.73,0,0,1,0-1h13.57l1.66,4.11,1.4,3.49,1.4,3.49h0l2.33,5.79,2.33,5.79.81,2,.81,2h0l3.88,9.63L247.9,208h0l3.28,8.16a4.56,4.56,0,0,0,.33.56,3.8,3.8,0,0,0,2.24,1.69,3.44,3.44,0,0,0,1,.13h57.17a3.78,3.78,0,0,0,3.16-1.68,3.66,3.66,0,0,0,.58-1.36,3.94,3.94,0,0,0,.08-.77,3.86,3.86,0,0,0-2.43-3.54l2.11-6.28,5.48-16.33,6.55-19.48a1.31,1.31,0,0,0,.06-.55,4.12,4.12,0,0,0-.25-.82,1.54,1.54,0,0,0-1.25-.64H239.65l-1.71-4.24a1.75,1.75,0,0,0-.2-.35h0a3.8,3.8,0,0,0-3.33-2h-7.65a7.67,7.67,0,0,1,.84-2.18,8.61,8.61,0,0,1,.69-1.08,13.12,13.12,0,0,1,1.76-1.82c.25-.23.5-.46.77-.69l3.53-2.91c1.76-1.46,3.53-2.91,5.33-4.31a12,12,0,0,0,3.82-4.55,6.86,6.86,0,0,0,.59-2.84c0-2.53-1.58-5.06-4.6-7.36-.52-.4-1.05-.77-1.58-1.16h0c-3.28-2.46-6.61-4.82-10.08-7.05a108.71,108.71,0,0,0-10.34-6c5.45-5,9.89-10.34,11.86-17.27.06-.21.14-.41.19-.62a8.58,8.58,0,0,1,1.69-3.45,8.49,8.49,0,0,1,1.91-1.64,7.07,7.07,0,0,0,1.45-1.27,7.73,7.73,0,0,0,1.55-7h0a5.09,5.09,0,0,0-.74-1.45,3.78,3.78,0,0,0-2.14-1.55,6.46,6.46,0,0,1-5.08-6.15c-.14-2.3-.63-3.89-2-5.09A7.06,7.06,0,0,0,224.62,72a.44.44,0,0,1-.11-.09,1.8,1.8,0,0,1-.24-.52,1.26,1.26,0,0,1-.1-.47h0l.06,0,.14-.09a4.45,4.45,0,0,0,.85-.7c.76-.81.28-1.35-.44-1.75h0c-.3-.17-.64-.31-.93-.44a3.08,3.08,0,0,1-.61-.31c-2.58-2-5.44-3.56-8.06-5.21.83-2,3.25-2.1,4-4.4-1.75.4-3.15.72-4.59,1s-3.07,1.7-4.08.6a1.43,1.43,0,0,1-.39-.69,1,1,0,0,1,0-.35c0-1.06,1.19-2.16,1.42-3.28a.62.62,0,0,0,0-.3c0-.15-.1-.32-.14-.47a6.88,6.88,0,0,0-2.54,1.92c-1,1-2.09,1.93-3.7,1.48h0c-.07,0-.16-.07-.24-.09a5,5,0,0,1-1.28-.66,8.9,8.9,0,0,1-.95-.74,15.63,15.63,0,0,1-3.49-5.07c-.26-.51-.51-1-.77-1.56h0a6.13,6.13,0,0,0-.88,1.85c-.53,1.84-.27,3.76-.72,5.6a27.18,27.18,0,0,1-3.29-1.19c-1.43-.62-2.78-1.31-4.11-2h0c-.8-.41-1.59-.83-2.4-1.23q-.78-.4-1.59-.78h0a2.42,2.42,0,0,0,.65,1.5,8,8,0,0,1,.64.89,1.82,1.82,0,0,1,.26,1.07,2.42,2.42,0,0,1-.17.68L183.34,55l-4.55-1.61h0c.45.54.74.92,1,1.22a2.8,2.8,0,0,0,.58.57,8,8,0,0,1,1.35,1.14c1.4,1.55.47,2.71-1.95,4.09-3.22,1.84-6.5,2.07-10.4,1.59,1.5.93,2.13,1.74,2.17,2.53s-.54,1.57-1.44,2.41c-.18.16-.35.33-.55.5a30.29,30.29,0,0,0-8.7,13c-.49,1.34-.7,3-2.62,3.1h-.1a7.21,7.21,0,0,0-2,.46h0a5.49,5.49,0,0,0-.84.42s0,0-.07,0a4.49,4.49,0,0,0-.65.5,5.42,5.42,0,0,0-1.61,3.46,7.6,7.6,0,0,0,3.15,7.3c.24.18.48.36.74.53.11.07.24.13.36.19.89.4,2,.48,2.28,1.79a34,34,0,0,0,4.14,10.17h0a37.36,37.36,0,0,0,5.12,6.57,40.31,40.31,0,0,0,3.36,3.15c.39.34.77.69,1.18,1h0a5.17,5.17,0,0,0-.52.29c-.15.08-.27.15-.37.19h0a.3.3,0,0,1-.16,0c-1,0-2.06,0-3.08-.15l-1.43-.12-1.71-.15h0a67.84,67.84,0,0,0-7-.12,63.8,63.8,0,0,0-6.81.57h0a62.4,62.4,0,0,0-12.68,3.07h0a65.45,65.45,0,0,0-11.84,5.6h0c-1.74,1-3.45,2.16-5.14,3.38-2.06,1.49-4.17,2.91-6.32,4.24h0q-3.13,1.94-6.44,3.58c-.39.19-.77.41-1.16.6a44.1,44.1,0,0,1-6,2.35,29.32,29.32,0,0,1-18.05.36h0a26.84,26.84,0,0,1-6.9-3.4,30.16,30.16,0,0,1-3.79-3.09c-.66-.63-1.28-1.3-1.88-2-.74-.83-1.46-1.68-2.18-2.53-.37-.44-.75-.88-1.13-1.31h0l-.54.4a1.36,1.36,0,0,0-.32.31,4.57,4.57,0,0,0-.53,1.17c-2.35,8.42.53,15.38,6.43,21.17a15.17,15.17,0,0,1,2.32,2.92h0c.06.09.1.18.15.27a15.72,15.72,0,0,1,1.72,4.23,66.75,66.75,0,0,0,3.3,10.11,49.47,49.47,0,0,0,4.32,8.12h0c.15.24.3.48.46.71.44.63.89,1.22,1.36,1.79l.14.19c.36.43.75.83,1.13,1.23.16.17.31.36.48.52A20.89,20.89,0,0,0,91.86,186a20.56,20.56,0,0,0,9.6,3.59c.61.07,1.21.15,1.84.18a44.66,44.66,0,0,0,14.57-2.11l.76-.22h0c1.67-.51,3.37-1.07,5.12-1.67h0l-.12.19a25.54,25.54,0,0,1-2.26,3.46A28.67,28.67,0,0,1,114,195.9a6.14,6.14,0,0,0-1.26,1,1,1,0,0,0-.2,1.11,3.26,3.26,0,0,0,.91,1.1c5.51,4.76,11.35,8.38,17.93,9.83a29.42,29.42,0,0,0,7.57.68,34,34,0,0,0,8.29-1.42h0c.89-.27,1.8-.57,2.72-.91l.37-.14.38-.15a86.8,86.8,0,0,0,8.78-3.76c.81-.41,1.62-.83,2.4-1.28h0a36.26,36.26,0,0,0,7.22-5.4h0c.6-.59,1.17-1.22,1.74-1.87.17-.2.35-.39.52-.58a4.32,4.32,0,0,0,.34-.39h0c0,.9-.08,1.78-.12,2.66-.06,1.31-.13,2.62-.21,3.92-.29,4.6-.69,9.12-1.07,13.64,0,0,0,.09,0,.14,0,.21,0,.41-.05.62l-.06.6c-.3,3-.94,5.61-4.72,6.9a5.84,5.84,0,0,0-3.95,5.66l-.74.08h0l-.5,0h0c-4.14.4-8.21.87-12.26,1.39-1.62.2-3.25.4-4.85.62h0c-2.11.3-4.19.64-6.28,1q-12.94,2-25.18,4.91h0c-7.93,1.85-15.63,3.94-23,6.27l-1,.32h0l-2.34.76L83,244A227.51,227.51,0,0,0,183,277Zm74.29-66.09-3-7.51-1.13-2.82h5v0h0l1.2,10.3Zm32.08-8-.27,8H276L276,209l-.26-7.84,0-.59h13.75Zm.36-10.74h0l-.2,6.12h-13.9l-.17-5.1-.17-4.94-.08-2.65-.09-2.65H290Zm20.44,18.73h-3.5l.31-2.71.88-7.62h5.76l-1.92,5.77Zm.22-32,1-8.78h12.48l-.05.15-3.5,10.4H310.18Zm9.15,4.05h0l-2.46,7.34-.67,2-2,6h-6.28l.23-2,.26-2.19h0l1.31-11.2Zm-27-7.13.19-5.7h16.35l-.6,5.19-.6,5.19h0l0,.17H292.38Zm-.24,7.38V183h15.28l-.71,6.15-.7,6.15-.17,1.43-.18,1.61h-14l.12-3.81.13-3.82Zm-.57,17.37h13.83l-.89,7.67-.1.89h0l0,.19-.18,1.58h-13l.29-9h0v-.65l0-.63Zm-9.85-30.45h8.57l-.25,7.39-.11,3.16H275l-.12-3.79-.22-6.76Zm-8.41,32.47h0l.24,7.43h0l0,.85v0H261.63l-.07-.65h0l-1.13-9.67h13Zm-12.12-4.3h-1.18l-.74-6.43-1-8.91h14.41l.22,6.92h0l.29,8.42Zm4-28.17h7.06l.31,8.9.05,1.65h-14.6l-.29-2.45h0l-.94-8.1Zm-8,23.74h0l.24,2.07.28,2.35h-5.66l-3.91-9.71-2.1-5.21L246,183h10Zm-15.5-23.74h12.76l.14,1.21h0l1,9.13,0,.21H245.13l-2.93-7.27-.83-2.48-.12-.34-.15-.46h.76Zm-26-27.59h0c0-2,0-3.57.09-4.79.21-3.41,1-3.9,4.11-2.47,1.1.51,2.47,1.25,4.22,2.2l.58.32a15,15,0,0,1,3,1.88c1.2,1.16.25,2.19-2.61,5.15-.45.46-.88.94-1.32,1.42l-1.23,1.32a36.08,36.08,0,0,1-3.26,3.17c-1.38,1.13-2.71,1.44-3.27.18a2.84,2.84,0,0,1-.13-.35,4.37,4.37,0,0,1-.14-.9,5.24,5.24,0,0,1,0-.57C215.88,146.91,215.86,144.72,215.86,142.54Zm-19.35,53.13c1-1.38,2.37-2.74,3.37,0,.54,1.45,1,2.91,1.51,4.36.25.76.49,1.52.71,2.28a50.1,50.1,0,0,1,2.31,14.21,34.88,34.88,0,0,1-1.09,8.8c-.08.3-.11.57-.16.86l-4.39,0c-2.83,0-5.63,0-8.41.1a22.57,22.57,0,0,1-.86-6.55A54.85,54.85,0,0,1,191,209a40.61,40.61,0,0,1,1.74-6c.16-.43.32-.87.5-1.3h0a32.24,32.24,0,0,1,1.48-3.08A28,28,0,0,1,196.51,195.67Z"/><path class="cls-2" d="M356.5,251.73l-13.28-17.08-3-3.79h0l-.71.52-.41.31-.41.29c-1.13.84-2.28,1.67-3.42,2.5s-2.52,1.79-3.79,2.66c-3.87,2.66-7.82,5.16-11.81,7.57l-1.15.7h0A226.9,226.9,0,0,1,217.33,277.3c-5.09.35-10.22.52-15.36.52-6.36,0-12.69-.29-19-.82A227.51,227.51,0,0,1,83,244h0l-1.36-.82h0q-3.9-2.43-7.75-5h0q-1.8-1.22-3.58-2.46c-1.58-1.11-3.15-2.23-4.71-3.38l-.14-.1-.08-.06-.56-.42-.56-.42h0l-8,10.38-8,10.37-.87,1.13-7.71,10-6.25,8.09,1.16.86c49.14,36.7,107,56.09,167.42,56.09,60.7,0,118.85-19.58,168.11-56.63l.56-.42.61-.45-13.87-17.84h0l-.88-1.13Zm12.73,18.7C298.77,323.4,211,339,130.34,317.26c-3.07-.83-6.12-1.7-9.17-2.63l-.17-.05A281.4,281.4,0,0,1,35.41,271Q50,252.12,64.51,233.28c83,61.47,192.72,61.28,275.49-.44Z"/><path class="cls-3" d="M115.46,277.64l-3-1.1-2.66,7.36,2.18.78,4.36,1.58a4.12,4.12,0,0,0,.58.15,3.46,3.46,0,0,0,2.28-.24l.13,0c.1-.05.19-.12.29-.18a6,6,0,0,0,.52-.36,4.25,4.25,0,0,0,.39-.35,3.8,3.8,0,0,0,1-2.45,3,3,0,0,0,0-.42,4.17,4.17,0,0,0-.12-.8,3.87,3.87,0,0,0-.23-.65,4.29,4.29,0,0,0-.75-1.05c-.05-.05-.09-.11-.14-.15s-.19-.14-.28-.21a3.51,3.51,0,0,0-1.05-.59Z"/><path class="cls-3" d="M160,294a4.19,4.19,0,0,0,0-1.54,4,4,0,0,0-.58-1.38A3.78,3.78,0,0,0,158.3,290a3.88,3.88,0,0,0-1.44-.59L151,288.3l-.63-.12-1.49,7.67,6.51,1.26h0a3.89,3.89,0,0,0,1.52,0,3.68,3.68,0,0,0,1.38-.59,4.88,4.88,0,0,0,.59-.52,3.45,3.45,0,0,0,.46-.54A4.26,4.26,0,0,0,160,294Z"/><path class="cls-3" d="M369.23,270.43,340,232.84c-82.77,61.72-192.52,61.91-275.49.44Q50,252.12,35.41,271A281.4,281.4,0,0,0,121,314.58l.17.05c3,.93,6.1,1.8,9.17,2.63C211,339,298.77,323.4,369.23,270.43Zm-54.72-5.56L327,270.44l8.68,3.85-8.59-16.15,2.12-1.12L340,277.17h0l-1.69.91-21.22-9.44,8.6,16.15-2.12,1.12-10.73-20.15Zm-5.75,2.65,1,2.18-1.61.72-1.94.88,5.37,11.93,2,4.51,3.56-1.6.49,1.09.5,1.09h0l-9.28,4.19h0l-.35-.77-.64-1.41,3.55-1.6L304,272.29l-3.55,1.6h0l-1-2.18,2.88-1.3Zm-27.92,11.34h0l4.85,13.05c.07.17.17.32.24.49a6.18,6.18,0,0,0,1.14,1.7,6.6,6.6,0,0,0,2.06,1.45,6.46,6.46,0,0,0,2.45.56,6.61,6.61,0,0,0,4.78-1.77,7.2,7.2,0,0,0,1.48-2,6.25,6.25,0,0,0,.64-2.43,6.32,6.32,0,0,0-.39-2.53l0-.13-4.81-13,2.23-.82,4.84,13a9,9,0,0,1,.54,3.5,9,9,0,0,1-2.83,6.16,8.61,8.61,0,0,1-3,1.88,8.93,8.93,0,0,1-3.32.57h0a8.95,8.95,0,0,1-5.91-2.36,9.09,9.09,0,0,1-2-2.65h0l-.32-.84-4.82-13Zm-25.58,14.48a11.16,11.16,0,0,1,1.43-4.13,11.3,11.3,0,0,1,2.88-3.3,10.86,10.86,0,0,1,2.65-1.52,13,13,0,0,1,1.41-.48,10.85,10.85,0,0,1,1.67-.3,10.73,10.73,0,0,1,2.83,0,12.22,12.22,0,0,1,4.12,1.42,11.23,11.23,0,0,1,2.57,2c.25.27.49.55.73.85a10.41,10.41,0,0,1,1.35,2.25,12.06,12.06,0,0,1,.66,1.8,11.93,11.93,0,0,1,.37,2.89c0,.32,0,.65,0,1a11.58,11.58,0,0,1-.95,3.74l3.11,1.79-1.21,2.07-3.08-1.83c-.19.26-.41.48-.62.72a11.16,11.16,0,0,1-2.14,2,11,11,0,0,1-3.52,1.61,11.19,11.19,0,0,1-4.52.28,11.65,11.65,0,0,1-4.14-1.43,11.84,11.84,0,0,1-3.3-2.87,11.19,11.19,0,0,1-2-4.07A10.79,10.79,0,0,1,255.26,293.34ZM232,290.07h0l17,15.82-2.86-18.07,2.36-.37h0L252.07,310l-1.9.3h0l-5.52-5.15L233.2,294.47l2.86,18.06-1.37.22-1,.16-1.92-12.11-1.66-10.44.95-.14Zm-6.18.53h0L226,293l-3.86.31,1.4,18,3.89-.31.18,2.38-10.16.8-.17-2.38,3.87-.31-1.41-18-3.87.31-.19-2.39,5.08-.4ZM119.78,276.67a6.34,6.34,0,0,1,1.56.85,6.77,6.77,0,0,1,.58.44c.18.17.31.35.47.53a6.47,6.47,0,0,1,1,1.43,6.59,6.59,0,0,1,.57,2.35,6.12,6.12,0,0,1-.11,1.48,5.77,5.77,0,0,1-.25,1,6.12,6.12,0,0,1-1.3,2.14,6.46,6.46,0,0,1-2,1.43,5.94,5.94,0,0,1-2.33.59,6,6,0,0,1-2.48-.36l-6.55-2.37-3.48,9.6-2.25-.81L111,273.48l4,1.46Zm-35.2,1.09h0l.35-.75,0-.06,5.76-12.61h0l2.17,1L87.1,278c-.08.18-.12.37-.19.55a5.58,5.58,0,0,0-.23.69.49.49,0,0,0,0,.12,5.67,5.67,0,0,0-.14,1.17,5.79,5.79,0,0,0,.06.83A6.61,6.61,0,0,0,87,283a6.7,6.7,0,0,0,1.34,2.13,6.58,6.58,0,0,0,2.11,1.53,6.35,6.35,0,0,0,2.52.58,6.91,6.91,0,0,0,2.49-.38,6.38,6.38,0,0,0,2.16-1.27,6.07,6.07,0,0,0,1.53-2.07l0-.13,5.74-12.58h0l2.19,1-.13.28-5.63,12.32a8.87,8.87,0,0,1-2.08,2.88,9.27,9.27,0,0,1-3,1.79,8.93,8.93,0,0,1-3.41.57,8.67,8.67,0,0,1-3.46-.81,9,9,0,0,1-4.54-4.63h0c-.13-.29-.2-.6-.3-.9s-.16-.42-.21-.64a8.55,8.55,0,0,1-.21-1.62,9,9,0,0,1,.44-3.29ZM64.82,267.61,67,268.83l-.53.88A2.88,2.88,0,0,0,66,271.2a3.86,3.86,0,0,0,.3,1.6,5.49,5.49,0,0,0,1,1.5,6.85,6.85,0,0,0,.62.58,7.64,7.64,0,0,0,.91.62l1.69,1a6,6,0,0,0,1.79.66,5.76,5.76,0,0,0,.91.1,4.91,4.91,0,0,0,.86-.05,1.8,1.8,0,0,0,.22-.06,3.76,3.76,0,0,0,1-.35,3.18,3.18,0,0,0,.32-.16,4.23,4.23,0,0,0,.41-.33,3.24,3.24,0,0,0,.36-.38,4.13,4.13,0,0,0,.31-.42,3,3,0,0,0,.32-.91,2.35,2.35,0,0,0,.09-.6,4,4,0,0,0-.3-1.61,5.14,5.14,0,0,0-.94-1.51,5.79,5.79,0,0,0-1.49-1.19l-.06,0-.28-.16-.44-.25c-.55-.36-1.14-.77-1.76-1.23a4.65,4.65,0,0,1-1.35-1.45c-1.45-2.48-1.64-4.69-.53-6.64a5.4,5.4,0,0,1,1-1.24,5,5,0,0,1,.7-.59,6,6,0,0,1,.9-.48,6.43,6.43,0,0,1,1.46-.49A7.41,7.41,0,0,1,75.3,257a9.38,9.38,0,0,1,1.38.11,8.26,8.26,0,0,1,2.75,1l.5.29a8.08,8.08,0,0,1,3.58,4,6.11,6.11,0,0,1,.47,2.45,5.14,5.14,0,0,1-.31,1.66,4.66,4.66,0,0,1-.26.71L83,268h0l-1.09-.61-1.08-.61.37-.78a3.38,3.38,0,0,0,.3-1.48,3.89,3.89,0,0,0-.36-1.54,5.44,5.44,0,0,0-1-1.44,5.77,5.77,0,0,0-1.44-1.13l-.5-.29a5.65,5.65,0,0,0-1.8-.67,4.65,4.65,0,0,0-1.74,0,3.75,3.75,0,0,0-1,.31,3.15,3.15,0,0,0-.52.26,2.85,2.85,0,0,0-.38.31,3.24,3.24,0,0,0-.7.82,3.28,3.28,0,0,0-.43,1.48,3.79,3.79,0,0,0,.24,1.55,5,5,0,0,0,.86,1.46,5.77,5.77,0,0,0,1.4,1.19l.14.08.06,0,.83.47,0,0a11.26,11.26,0,0,1,1.41.9l.08.05a7.1,7.1,0,0,1,1.74,1.81,6.62,6.62,0,0,1,1,2.15,6.5,6.5,0,0,1,.14,2.24,5.55,5.55,0,0,1-.68,2.13,6,6,0,0,1-.42.57,5.41,5.41,0,0,1-1.29,1.28,6.2,6.2,0,0,1-2.36,1,8.2,8.2,0,0,1-1.32.13,9.38,9.38,0,0,1-1.38-.11,8.29,8.29,0,0,1-2.75-1l-1.69-1a8.39,8.39,0,0,1-2.26-1.85A7.62,7.62,0,0,1,64,273.42a6.18,6.18,0,0,1-.4-2.51,5.47,5.47,0,0,1,.71-2.42l.06-.12Zm69,24.33,4.44,1.23h0l-.23.83-.41,1.49h0L128.75,293l-2.09,7.54,12.17,3.38h0l-.47,1.7-.17.61-7.24-2-7.24-2h0l6.11-22,14.5,4h0l-.65,2.31-12.18-3.39-2.09,7.53Zm28.46,2.52a7.17,7.17,0,0,1-.37,1.22,6.37,6.37,0,0,1-.59,1.09,6.66,6.66,0,0,1-1.7,1.73,6.38,6.38,0,0,1-2.22.95,6.27,6.27,0,0,1-2.48,0l-3.71-.72L160.61,311h0l-3.18-.61-.3-.06-4.42-5.78-4.41-5.78-.77,4-1.06,5.52-2.35-.45h0l2.17-11.2,2.16-11.21,8.88,1.72a6,6,0,0,1,2.3,1,6.36,6.36,0,0,1,2.67,6.42Zm25.82,8.31a12.78,12.78,0,0,1-.24,1.4,11.2,11.2,0,0,1-.81,2.32h0a11.78,11.78,0,0,1-2.23,3.15l2.28,2.77h0l-1.86,1.5-1.13-1.4-1.12-1.4,0,0a11.65,11.65,0,0,1-1.66.9l0,0a11.29,11.29,0,0,1-1.78.6h0a11,11,0,0,1-2,.3,11.71,11.71,0,0,1-1.87,0,11.2,11.2,0,0,1-4.33-1.35l0,0a11.56,11.56,0,0,1-3.34-2.78,11.32,11.32,0,0,1-1.73-3c-.12-.29-.24-.59-.34-.9a10.75,10.75,0,0,1-.45-2.52,11,11,0,0,1,0-2,11.77,11.77,0,0,1,.43-2.11l0-.14c0-.17.12-.33.18-.49s.13-.38.21-.57.28-.58.43-.87l.07-.14h0c.21-.37.44-.73.68-1.07a11.86,11.86,0,0,1,1.29-1.53l0,0h0q.39-.37.81-.72a11.09,11.09,0,0,1,1.63-1.1,12,12,0,0,1,2.23-1,11.3,11.3,0,0,1,2.08-.43,11.61,11.61,0,0,1,2.43,0,11,11,0,0,1,3.68,1c.21.1.42.19.62.3a11.45,11.45,0,0,1,2.83,2.22c.18.19.36.38.53.58a11.61,11.61,0,0,1,2.05,3.85c.11.37.2.73.28,1.1A11.39,11.39,0,0,1,188.12,302.77Zm11,11.06a9.39,9.39,0,0,1-1.71-.93,8.81,8.81,0,0,1-1-.78,9.14,9.14,0,0,1-2.92-5.74h0V291.63h2.39v13.93a6.09,6.09,0,0,0,.53,2.54c.12.26.27.5.41.74a5.79,5.79,0,0,0,1.89,2,4.94,4.94,0,0,0,.55.32,7.12,7.12,0,0,0,.67.36,6.8,6.8,0,0,0,2.56.51,6.58,6.58,0,0,0,2.54-.51,7.44,7.44,0,0,0,1.32-.76,9.48,9.48,0,0,0,.79-.63,6.57,6.57,0,0,0,1.43-2.06,6.37,6.37,0,0,0,.51-2.25c0-.09,0-.18,0-.27v-14h2.4v13.86h0a8.64,8.64,0,0,1-.41,2.65c-.09.28-.19.56-.3.83a9,9,0,0,1-1.93,2.85,9.21,9.21,0,0,1-2.87,1.94,8.22,8.22,0,0,1-1.09.37,9,9,0,0,1-2.39.33,9.19,9.19,0,0,1-1.75-.17A8.54,8.54,0,0,1,199.09,313.83Z"/><path class="cls-3" d="M174.57,310.32a10.67,10.67,0,0,0,1.3.24,8.92,8.92,0,0,0,2.92-.18,9.31,9.31,0,0,0,2.7-1.1l-3.14-3.85.93-.75.93-.75h0l3.13,3.84A10.29,10.29,0,0,0,184,307a8.76,8.76,0,0,0,1.74-4.44,9.22,9.22,0,0,0,0-1.66,9.37,9.37,0,0,0-.18-1.2c-.05-.24-.11-.47-.18-.7a10.85,10.85,0,0,0-.59-1.44,8.55,8.55,0,0,0-1-1.62,9.28,9.28,0,0,0-2.66-2.23,8.27,8.27,0,0,0-1.79-.75,8.56,8.56,0,0,0-1.6-.32,8.74,8.74,0,0,0-2.23.05,7.93,7.93,0,0,0-1.35.29,9.35,9.35,0,0,0-3,1.64,8.83,8.83,0,0,0-1.42,1.51,8.63,8.63,0,0,0-.8,1.17,7.59,7.59,0,0,0-.54,1.2,8.5,8.5,0,0,0-.53,2.21,8.75,8.75,0,0,0,.2,3c0,.2.09.39.15.59a9.23,9.23,0,0,0,.58,1.37,8.17,8.17,0,0,0,1.05,1.66,8.75,8.75,0,0,0,1.45,1.4,9.1,9.1,0,0,0,1.18.81A8.52,8.52,0,0,0,174.57,310.32Z"/><path class="cls-3" d="M257.83,297.23c.1.35.22.69.35,1a9.1,9.1,0,0,0,.84,1.61c.13.2.27.4.42.59a9.46,9.46,0,0,0,.87.92,9.89,9.89,0,0,0,1.71,1.34,9.31,9.31,0,0,0,3.25,1.13,8.75,8.75,0,0,0,3.59-.21,8.46,8.46,0,0,0,2.68-1.21,9.5,9.5,0,0,0,2.13-2l-4.3-2.48.5-.87.7-1.2,4.28,2.49a9.13,9.13,0,0,0,.39-5.78,9.48,9.48,0,0,0-.63-1.69,9.77,9.77,0,0,0-.94-1.51,9.19,9.19,0,0,0-.95-1,9.43,9.43,0,0,0-1.67-1.29,9.21,9.21,0,0,0-3.28-1.14,8.55,8.55,0,0,0-3.55.21,8.79,8.79,0,0,0-3.21,1.59,9.34,9.34,0,0,0-2.26,2.61,10.37,10.37,0,0,0-.55,1.17,9.24,9.24,0,0,0-.56,2.11A8.67,8.67,0,0,0,257.83,297.23Z"/><path class="cls-4" d="M64.29,268.49a5.47,5.47,0,0,0-.71,2.42,6.18,6.18,0,0,0,.4,2.51,7.62,7.62,0,0,0,1.38,2.32,8.39,8.39,0,0,0,2.26,1.85l1.69,1a8.29,8.29,0,0,0,2.75,1,9.38,9.38,0,0,0,1.38.11,8.2,8.2,0,0,0,1.32-.13,6.2,6.2,0,0,0,2.36-1,5.41,5.41,0,0,0,1.29-1.28,6,6,0,0,0,.42-.57,5.55,5.55,0,0,0,.68-2.13,6.5,6.5,0,0,0-.14-2.24,6.62,6.62,0,0,0-1-2.15,7.1,7.1,0,0,0-1.74-1.81l-.08-.05a11.26,11.26,0,0,0-1.41-.9l0,0-.83-.47-.06,0-.14-.08a5.59,5.59,0,0,1-1.4-1.19,5,5,0,0,1-.86-1.46,3.79,3.79,0,0,1-.24-1.55,3.28,3.28,0,0,1,.43-1.48,3.24,3.24,0,0,1,.7-.82,2.85,2.85,0,0,1,.38-.31,3.15,3.15,0,0,1,.52-.26,3.75,3.75,0,0,1,1-.31,4.65,4.65,0,0,1,1.74,0,5.87,5.87,0,0,1,1.8.66l.5.3a5.77,5.77,0,0,1,1.44,1.13,5.44,5.44,0,0,1,1,1.44,3.89,3.89,0,0,1,.36,1.54,3.38,3.38,0,0,1-.3,1.48l-.37.78,1.08.61L83,268h0l.41-.86a4.66,4.66,0,0,0,.26-.71,5.14,5.14,0,0,0,.31-1.66,6.11,6.11,0,0,0-.47-2.45,8.08,8.08,0,0,0-3.58-4l-.5-.29a8.26,8.26,0,0,0-2.75-1A9.38,9.38,0,0,0,75.3,257a7.41,7.41,0,0,0-1.33.14,6.43,6.43,0,0,0-1.46.49,6,6,0,0,0-.9.48,5,5,0,0,0-.7.59,5.4,5.4,0,0,0-1,1.24c-1.11,1.95-.92,4.16.53,6.64A4.65,4.65,0,0,0,71.8,268c.62.46,1.21.87,1.76,1.23l.44.25.28.16.06,0a5.79,5.79,0,0,1,1.49,1.19,4.94,4.94,0,0,1,.94,1.51,4,4,0,0,1,.3,1.61h0a2.35,2.35,0,0,1-.09.6,3,3,0,0,1-.32.91,4.13,4.13,0,0,1-.31.42,3.24,3.24,0,0,1-.36.38,4.23,4.23,0,0,1-.41.33,3.18,3.18,0,0,1-.32.16,3.76,3.76,0,0,1-1,.35,1.8,1.8,0,0,1-.22.06,4.91,4.91,0,0,1-.86.05,5.76,5.76,0,0,1-.91-.1,6,6,0,0,1-1.79-.66l-1.69-1a7.64,7.64,0,0,1-.91-.62,6.85,6.85,0,0,1-.62-.58,5.49,5.49,0,0,1-1-1.5,3.86,3.86,0,0,1-.3-1.6,2.88,2.88,0,0,1,.44-1.49l.53-.88-2.17-1.22-.47.76Z"/><path class="cls-4" d="M84.17,281.06a8.55,8.55,0,0,0,.21,1.62c.05.22.15.43.21.64s.17.61.3.9h0a9,9,0,0,0,4.54,4.63,8.84,8.84,0,0,0,3.46.81,8.93,8.93,0,0,0,3.41-.57,9.19,9.19,0,0,0,3-1.8,8.72,8.72,0,0,0,2.08-2.87L107,272.1l.13-.28-2.19-1h0L99.16,283.4l0,.13h0a6.07,6.07,0,0,1-1.53,2.07,6.38,6.38,0,0,1-2.16,1.27,6.91,6.91,0,0,1-2.49.38,6.35,6.35,0,0,1-2.52-.58,6.58,6.58,0,0,1-2.11-1.53A6.7,6.7,0,0,1,87,283a6.61,6.61,0,0,1-.37-1.64,7.71,7.71,0,0,1-.07-.84,6.46,6.46,0,0,1,.15-1.16.49.49,0,0,1,0-.12,5.58,5.58,0,0,1,.23-.69c.07-.18.11-.37.19-.55l5.78-12.67-2.17-1h0L85,277l0,.06-.35.75h0A9,9,0,0,0,84.17,281.06Z"/><path class="cls-4" d="M103.21,294.94l2.25.81,3.48-9.6,6.55,2.37a6,6,0,0,0,2.48.36,5.94,5.94,0,0,0,2.33-.59,6.59,6.59,0,0,0,2-1.43,6.21,6.21,0,0,0,1.3-2.14,5.77,5.77,0,0,0,.25-1,6.12,6.12,0,0,0,.11-1.48,6.65,6.65,0,0,0-.57-2.35,6.47,6.47,0,0,0-1-1.43c-.16-.18-.29-.36-.47-.53a6.77,6.77,0,0,0-.58-.44,6.34,6.34,0,0,0-1.56-.85L115,274.94l-4-1.46ZM120,279.51c.09.07.19.13.28.21s.09.1.14.15a4,4,0,0,1,.75,1.05,3.58,3.58,0,0,1,.23.65,4.17,4.17,0,0,1,.12.8,3,3,0,0,1,0,.42,3.8,3.8,0,0,1-1,2.45,4.25,4.25,0,0,1-.39.35,6,6,0,0,1-.52.36c-.1.06-.19.13-.29.18l-.13,0a3.77,3.77,0,0,1-1.33.33h0a3.78,3.78,0,0,1-1-.09,4.12,4.12,0,0,1-.58-.15l-4.36-1.58-2.18-.78,2.66-7.36h0l3,1.1,3.5,1.27A3.77,3.77,0,0,1,120,279.51Z"/><polygon class="cls-4" points="131.49 283.17 143.67 286.56 144.32 284.25 144.32 284.25 129.82 280.22 123.71 302.21 123.71 302.21 130.95 304.22 138.19 306.24 138.36 305.63 138.83 303.93 138.83 303.93 126.66 300.55 126.66 300.55 128.75 293.01 137.64 295.49 137.64 295.49 138.05 294 138.28 293.18 138.28 293.18 133.84 291.94 129.4 290.7 129.4 290.7 131.49 283.17"/><path class="cls-4" d="M161.33,289.75a6.29,6.29,0,0,0-1.7-1.71,6,6,0,0,0-2.3-1l-8.88-1.72-2.16,11.21-2.17,11.2h0l2.35.45,1.06-5.52.77-4h0l4.41,5.78,4.42,5.78.3.06,3.18.61h0l-9.38-12.22,3.71.72a6.27,6.27,0,0,0,2.48,0,6.58,6.58,0,0,0,2.22-.95,6.66,6.66,0,0,0,1.7-1.73,6.37,6.37,0,0,0,.59-1.09,7.17,7.17,0,0,0,.37-1.22,6.37,6.37,0,0,0-1-4.71ZM160,294a4.26,4.26,0,0,1-.59,1.45,3.45,3.45,0,0,1-.46.54,4.88,4.88,0,0,1-.59.52,3.68,3.68,0,0,1-1.38.59,3.89,3.89,0,0,1-1.52,0h0l-6.51-1.26,1.49-7.67h0l.63.12,5.88,1.14a3.88,3.88,0,0,1,1.44.59,3.78,3.78,0,0,1,1.06,1.05,4,4,0,0,1,.58,1.38A4.19,4.19,0,0,1,160,294Z"/><path class="cls-4" d="M188,299.36c-.08-.37-.17-.73-.28-1.1a11.61,11.61,0,0,0-2.05-3.85c-.17-.2-.35-.39-.53-.58a11.45,11.45,0,0,0-2.83-2.22c-.2-.11-.41-.2-.62-.3a11,11,0,0,0-3.68-1,11.61,11.61,0,0,0-2.43,0,11.3,11.3,0,0,0-2.08.43,12,12,0,0,0-2.23,1,11.09,11.09,0,0,0-1.63,1.1q-.42.35-.81.72h0l0,0a11.86,11.86,0,0,0-1.29,1.53c-.24.34-.47.7-.68,1.07h0l-.07.14c-.15.29-.3.57-.43.87s-.14.38-.21.57-.13.32-.18.49l0,.14a11.77,11.77,0,0,0-.43,2.11,11,11,0,0,0,0,2,10.75,10.75,0,0,0,.45,2.52c.1.31.22.61.34.9a11.32,11.32,0,0,0,1.73,3,11.56,11.56,0,0,0,3.34,2.78l0,0a11.2,11.2,0,0,0,4.33,1.35,11.71,11.71,0,0,0,1.87,0,11,11,0,0,0,2-.3h0a11.29,11.29,0,0,0,1.78-.6l0,0a11.65,11.65,0,0,0,1.66-.9l0,0,1.12,1.4,1.13,1.4,1.86-1.51h0l-2.28-2.77h0a11.9,11.9,0,0,0,2.23-3.16h0a11.2,11.2,0,0,0,.81-2.32,12.78,12.78,0,0,0,.24-1.4A11.39,11.39,0,0,0,188,299.36Zm-16.7,9.31a8.75,8.75,0,0,1-1.45-1.4,8.17,8.17,0,0,1-1.05-1.66,9.23,9.23,0,0,1-.58-1.37c-.06-.2-.11-.39-.15-.59a8.75,8.75,0,0,1-.2-3,8.5,8.5,0,0,1,.53-2.21,7.59,7.59,0,0,1,.54-1.2,8.63,8.63,0,0,1,.8-1.17,8.83,8.83,0,0,1,1.42-1.51,9.35,9.35,0,0,1,3-1.64,7.73,7.73,0,0,1,1.35-.29,8.74,8.74,0,0,1,2.23-.05,8.56,8.56,0,0,1,1.6.32,8.27,8.27,0,0,1,1.79.75,9.28,9.28,0,0,1,2.66,2.23,8.55,8.55,0,0,1,1,1.62,10.85,10.85,0,0,1,.59,1.44c.07.23.13.46.18.7a9.37,9.37,0,0,1,.18,1.2,9.22,9.22,0,0,1,0,1.66A8.76,8.76,0,0,1,184,307a10.29,10.29,0,0,1-.66.82h0l-3.13-3.84h0l-.93.75-.93.75,3.14,3.85a9.31,9.31,0,0,1-2.7,1.1,8.92,8.92,0,0,1-2.92.18,10.67,10.67,0,0,1-1.3-.24,8.52,8.52,0,0,1-2.13-.84A9.1,9.1,0,0,1,171.26,308.67Z"/><path class="cls-4" d="M204.8,314.12a8.22,8.22,0,0,0,1.09-.37,9.21,9.21,0,0,0,2.87-1.94,9,9,0,0,0,1.93-2.85c.11-.27.21-.55.3-.83a8.64,8.64,0,0,0,.41-2.65V291.62H209v14h0c0,.09,0,.18,0,.27a6.37,6.37,0,0,1-.51,2.25,6.57,6.57,0,0,1-1.43,2.06,9.48,9.48,0,0,1-.79.63,7.44,7.44,0,0,1-1.32.76,6.58,6.58,0,0,1-2.54.51,6.8,6.8,0,0,1-2.56-.51,7.12,7.12,0,0,1-.67-.36,4.94,4.94,0,0,1-.55-.32,5.79,5.79,0,0,1-1.89-2c-.14-.24-.29-.48-.41-.74a6.25,6.25,0,0,1-.53-2.54V291.62h-2.39v14.75h0a9.14,9.14,0,0,0,2.92,5.74,9.72,9.72,0,0,0,1,.78,9.39,9.39,0,0,0,1.71.93,8.54,8.54,0,0,0,1.57.45,9.19,9.19,0,0,0,1.75.17A9,9,0,0,0,204.8,314.12Z"/><polygon class="cls-4" points="215.88 293.79 219.75 293.48 221.16 311.46 217.29 311.77 217.46 314.15 227.62 313.36 227.44 310.97 223.55 311.28 222.15 293.3 226.01 292.99 225.84 290.61 225.84 290.61 220.77 291 215.69 291.4 215.88 293.79"/><polygon class="cls-4" points="231.77 300.81 233.69 312.91 234.69 312.75 236.06 312.53 233.2 294.47 233.2 294.47 244.65 305.14 250.17 310.29 250.17 310.29 252.07 309.99 248.49 287.45 248.49 287.45 246.13 287.82 248.99 305.89 232.02 290.07 232.02 290.07 231.06 290.22 230.11 290.36 231.77 300.81"/><path class="cls-4" d="M257.52,301.92a11.84,11.84,0,0,0,3.3,2.87,11.65,11.65,0,0,0,4.14,1.43,11.19,11.19,0,0,0,4.52-.28,11,11,0,0,0,3.52-1.61,11.16,11.16,0,0,0,2.14-2c.21-.24.43-.46.62-.72l3.08,1.83,1.21-2.07-3.11-1.79a11.58,11.58,0,0,0,.95-3.74c0-.32,0-.65,0-1a11.93,11.93,0,0,0-.37-2.89,12.06,12.06,0,0,0-.66-1.8,10.41,10.41,0,0,0-1.35-2.25c-.24-.3-.48-.58-.73-.85a11.23,11.23,0,0,0-2.57-2,12.22,12.22,0,0,0-4.12-1.42,10.73,10.73,0,0,0-2.83,0,10.85,10.85,0,0,0-1.67.3,13,13,0,0,0-1.41.48,10.86,10.86,0,0,0-2.65,1.52,11.43,11.43,0,0,0-2.88,3.3,11.16,11.16,0,0,0-1.43,4.13,10.79,10.79,0,0,0,.28,4.51A11.19,11.19,0,0,0,257.52,301.92Zm.68-10.38a10.37,10.37,0,0,1,.55-1.17,9.34,9.34,0,0,1,2.26-2.61,8.79,8.79,0,0,1,3.21-1.59,8.55,8.55,0,0,1,3.55-.21,9.21,9.21,0,0,1,3.28,1.14,9.43,9.43,0,0,1,1.67,1.29,9.19,9.19,0,0,1,.95,1,9.77,9.77,0,0,1,.94,1.51,9.48,9.48,0,0,1,.63,1.69,9.13,9.13,0,0,1-.39,5.78h0l-4.28-2.49-.7,1.2-.5.87,4.3,2.48a9.5,9.5,0,0,1-2.13,2,8.46,8.46,0,0,1-2.68,1.21,8.75,8.75,0,0,1-3.59.21,9.31,9.31,0,0,1-3.25-1.13,11.58,11.58,0,0,1-2.58-2.26c-.15-.19-.29-.39-.42-.59a9.1,9.1,0,0,1-.84-1.61c-.13-.33-.25-.67-.35-1a8.67,8.67,0,0,1-.19-3.58A9.24,9.24,0,0,1,258.2,291.54Z"/><path class="cls-4" d="M283.74,293.51h0a9.09,9.09,0,0,0,2,2.65,8.95,8.95,0,0,0,5.91,2.36h0a8.93,8.93,0,0,0,3.32-.57,8.61,8.61,0,0,0,3-1.88,9,9,0,0,0,2.83-6.16,9,9,0,0,0-.54-3.5l-4.84-13-2.23.82,4.81,13,0,.13a6.32,6.32,0,0,1,.39,2.53,6.25,6.25,0,0,1-.64,2.43,7.2,7.2,0,0,1-1.48,2,6.61,6.61,0,0,1-4.78,1.77,6.46,6.46,0,0,1-2.45-.56,6.6,6.6,0,0,1-2.06-1.45,6.18,6.18,0,0,1-1.14-1.7c-.07-.17-.17-.32-.24-.49l-4.85-13.05h0l-2.24.83,4.82,13Z"/><polygon class="cls-4" points="300.47 273.89 300.47 273.89 304.02 272.29 311.44 288.73 307.89 290.33 308.53 291.74 308.88 292.51 308.88 292.51 318.16 288.32 318.16 288.32 317.66 287.23 317.17 286.14 313.62 287.74 313.62 287.74 311.58 283.23 306.21 271.3 306.21 271.3 308.15 270.42 309.76 269.7 308.76 267.52 302.37 270.41 299.49 271.71 300.47 273.89"/><polygon class="cls-4" points="325.66 284.79 317.06 268.64 317.06 268.64 338.29 278.07 339.97 277.17 339.97 277.17 329.25 257.02 327.13 258.14 335.72 274.29 335.72 274.29 327.04 270.44 314.51 264.87 312.81 265.76 323.54 285.91 325.66 284.79"/><polygon class="cls-4" points="224.11 341.45 221.76 343.8 223.29 343.8 226 341.45 224.11 341.45"/><path class="cls-1" d="M268.34,362.59a7.69,7.69,0,1,0-7.68-7.7A7.7,7.7,0,0,0,268.34,362.59Z"/><path class="cls-1" d="M246.7,347.18h-4.18v15.49h4.18a7.75,7.75,0,0,0,0-15.49Z"/><polygon class="cls-1" points="151.84 348.47 148.23 356.63 155.42 356.63 151.84 348.47"/><path class="cls-1" d="M261.21,410.7a11.53,11.53,0,1,0-11.51-11.55A11.55,11.55,0,0,0,261.21,410.7Z"/><path class="cls-1" d="M174.43,350.54a3.34,3.34,0,0,0-3.33-3.33h-5.68v6.69h5.68A3.35,3.35,0,0,0,174.43,350.54Z"/><path class="cls-1" d="M116,350.54a3.34,3.34,0,0,0-3.33-3.33H107v6.69h5.68A3.35,3.35,0,0,0,116,350.54Z"/><path class="cls-1" d="M82.33,347.21h-6v6.69h6a3.35,3.35,0,0,0,0-6.69Z"/><path class="cls-1" d="M237.61,392.64a5,5,0,0,0-5-5h-8.52v10h8.52A5,5,0,0,0,237.61,392.64Z"/><polygon class="cls-4" points="111.17 410.82 94.87 410.82 94.87 384.57 91.8 384.57 91.8 413.86 111.17 413.86 111.17 410.82"/><polygon class="cls-4" points="137.84 410.78 121.63 410.78 121.63 400.75 133.46 400.75 133.46 397.68 121.63 397.68 121.63 387.64 137.84 387.64 137.84 384.57 118.55 384.57 118.55 413.86 137.84 413.86 137.84 410.78"/><polygon class="cls-4" points="187.01 384.57 183.94 384.57 183.94 397.68 166.53 397.68 166.53 384.57 163.46 384.57 163.46 413.86 166.53 413.86 166.53 400.75 183.94 400.75 183.94 413.86 187.01 413.86 187.01 384.57"/><path class="cls-4" d="M232.61,400.75a8.09,8.09,0,0,0,0-16.18H221v29.29h3.07V401.44L238,413.86h4.55l-14.79-13.11Zm-8.52-13.11h8.52a5,5,0,0,1,0,10h-8.52Z"/><path class="cls-4" d="M261.21,413.69a14.54,14.54,0,1,0-14.54-14.54A14.53,14.53,0,0,0,261.21,413.69Zm0-26.05a11.53,11.53,0,1,1-11.51,11.51A11.52,11.52,0,0,1,261.21,387.64Z"/><path class="cls-4" d="M304.51,405.79a8.35,8.35,0,0,0-7.65-8h-.13a15.52,15.52,0,0,0-2.13-.12v0h-1.51c-3.28-.09-5.9-2.34-5.9-5s2.78-5,6.22-5h.74c3.32,0,6.06,2.05,6.27,4.71l.08,1.11h3.2l-.09-1.23c-.24-4.3-4.42-7.66-9.46-7.66h-.74c-5.2,0-9.46,3.65-9.46,8.07,0,2.91,1.56,5.2,4.79,7.09,1.23.73,3.49.94,5.17,1h1.14c3.44,0,6.27,2.25,6.27,5s-2.83,5-6.27,5h-2.49c-3.45,0-6.35-2.25-6.27-5l0-1.31h-3.2l0,1.14v.17c0,4.46,4.26,8.07,9.47,8.07h2.49C300.26,413.86,304.51,410.25,304.51,405.79Z"/><polygon class="cls-4" points="204.39 382.46 208.44 378.95 205.62 378.95 202.11 382.46 204.39 382.46"/><polygon class="cls-4" points="194.39 413.69 213.62 413.69 213.62 410.63 197.45 410.63 197.45 400.63 209.25 400.63 209.25 397.56 197.45 397.56 197.45 387.56 213.62 387.56 213.62 384.5 194.39 384.5 194.39 413.69"/><polygon class="cls-4" points="13.6 362.67 2.73 362.67 2.73 345.16 0.68 345.16 0.68 364.69 13.6 364.69 13.6 362.67"/><polygon class="cls-4" points="28.65 347.21 28.65 345.16 15.79 345.16 15.79 364.69 28.65 364.69 28.65 362.64 17.84 362.64 17.84 355.95 25.73 355.95 25.73 353.9 17.84 353.9 17.84 347.21 28.65 347.21"/><path class="cls-4" d="M40.32,358.44l0,.76v.11c0,3,2.84,5.38,6.31,5.38h1.66c3.47,0,6.31-2.4,6.31-5.38a5.58,5.58,0,0,0-5.1-5.3h-.08a10.6,10.6,0,0,0-1.43-.08v0H47c-2.18,0-3.93-1.56-3.93-3.36s1.86-3.33,4.15-3.33h.49c2.22,0,4.05,1.37,4.18,3.14l.06.74H54l-.06-.82c-.16-2.87-2.95-5.11-6.31-5.11h-.49c-3.47,0-6.31,2.43-6.31,5.38,0,1.94,1,3.47,3.2,4.73a8.61,8.61,0,0,0,3.44.68h.76c2.3,0,4.18,1.5,4.18,3.36s-1.88,3.33-4.18,3.33H46.6c-2.3,0-4.23-1.5-4.18-3.33l0-.87Z"/><path class="cls-4" d="M56.76,345.16v12.62h0A7.7,7.7,0,0,0,72.14,357V345.16h-2v12a5.66,5.66,0,0,1-11.31,0V345.16Z"/><path class="cls-4" d="M82.33,345.16h-8v19.53h2.05V356h6a5.4,5.4,0,0,0,0-10.79Zm0,8.74h-6v-6.69h6a3.35,3.35,0,0,1,0,6.69Z"/><polygon class="cls-4" points="102.76 347.21 102.76 345.16 89.89 345.16 89.89 364.69 102.76 364.69 102.76 362.64 91.94 362.64 91.94 355.95 99.83 355.95 99.83 353.9 91.94 353.9 91.94 347.21 102.76 347.21"/><path class="cls-4" d="M118,350.54a5.38,5.38,0,0,0-5.35-5.38h-7.73v19.53h2v-8.27l9.29,8.27h3L109.45,356h3.22A5.39,5.39,0,0,0,118,350.54Zm-11,3.36v-6.69h5.68a3.35,3.35,0,0,1,0,6.69Z"/><polygon class="cls-4" points="140.29 364.69 140.29 345.16 138.51 345.16 130.86 361.47 123.24 345.16 121.49 345.16 121.49 364.69 123.54 364.69 123.54 350.62 130.1 364.69 131.6 364.69 138.24 350.6 138.24 364.69 140.29 364.69"/><path class="cls-4" d="M156.32,358.65l2.65,6h2.21l-8.58-19.53h-1.55l-8.58,19.53h2.21l2.65-6Zm-4.48-10.18,3.58,8.16h-7.19Z"/><path class="cls-4" d="M176.45,350.54a5.38,5.38,0,0,0-5.35-5.38h-7.73v19.53h2v-8.27l9.28,8.27h3L167.87,356h3.23A5.39,5.39,0,0,0,176.45,350.54Zm-11,3.36v-6.69h5.68a3.35,3.35,0,0,1,0,6.69Z"/><path class="cls-4" d="M187,364.72a9.74,9.74,0,0,0,9.45-7.32h-2.1a7.76,7.76,0,1,1,.08-4.67h2.11a9.78,9.78,0,1,0-9.54,12Z"/><polygon class="cls-4" points="198.71 345.16 198.71 364.69 200.76 364.69 200.76 355.95 212.37 355.95 212.37 364.69 214.42 364.69 214.42 345.16 212.37 345.16 212.37 353.9 200.76 353.9 200.76 345.16 198.71 345.16"/><polygon class="cls-4" points="229.47 347.21 229.47 345.16 216.6 345.16 216.6 364.69 229.47 364.69 229.47 362.64 218.65 362.64 218.65 355.95 226.54 355.95 226.54 353.9 218.65 353.9 218.65 347.21 229.47 347.21"/><path class="cls-4" d="M256.45,354.91a9.76,9.76,0,0,0-9.75-9.75h-6.23v19.53h6.23A9.76,9.76,0,0,0,256.45,354.91Zm-9.75,7.76h-4.18V347.18h4.18a7.75,7.75,0,0,1,0,15.49Z"/><path class="cls-4" d="M268.34,364.58a9.7,9.7,0,1,0-9.7-9.69A9.69,9.69,0,0,0,268.34,364.58Zm0-17.37a7.69,7.69,0,1,1-7.68,7.68A7.68,7.68,0,0,1,268.34,347.21Z"/><polygon class="cls-4" points="296.12 364.69 296.12 345.16 294.06 345.16 294.06 360.81 281.83 345.16 280.19 345.16 280.19 364.69 282.24 364.69 282.24 349.04 294.47 364.69 296.12 364.69"/><polygon class="cls-4" points="306.6 364.69 306.6 347.21 312.88 347.21 312.88 345.16 298.3 345.16 298.3 347.21 304.58 347.21 304.58 364.69 306.6 364.69"/><polygon class="cls-4" points="332.82 364.69 332.82 347.21 339.11 347.21 339.11 345.16 324.52 345.16 324.52 347.21 330.8 347.21 330.8 364.69 332.82 364.69"/><path class="cls-4" d="M341.29,345.16v12.62h0a7.7,7.7,0,0,0,15.35-.77V345.16h-2v12a5.66,5.66,0,0,1-11.31,0V345.16Z"/><polygon class="cls-4" points="381.17 347.21 381.17 345.16 368.31 345.16 368.31 364.69 381.17 364.69 381.17 362.64 370.36 362.64 370.36 355.95 378.25 355.95 378.25 353.9 370.36 353.9 370.36 347.21 381.17 347.21"/><path class="cls-4" d="M391.74,354h-.08a10.34,10.34,0,0,0-1.42-.08v0h-1c-2.19,0-3.94-1.56-3.94-3.36s1.86-3.33,4.16-3.33h.49c2.21,0,4,1.37,4.18,3.14l.05.74h2.13l-.05-.82c-.17-2.87-2.95-5.11-6.31-5.11h-.49c-3.47,0-6.31,2.43-6.31,5.38,0,1.94,1,3.47,3.19,4.73a8.65,8.65,0,0,0,3.44.68h.77c2.29,0,4.18,1.5,4.18,3.36s-1.89,3.33-4.18,3.33h-1.67c-2.29,0-4.23-1.5-4.17-3.33l0-.87h-2.13l0,.76v.11c0,3,2.83,5.38,6.3,5.38h1.67c3.47,0,6.31-2.4,6.31-5.38A5.58,5.58,0,0,0,391.74,354Z"/><rect class="cls-4" y="396.16" width="76.46" height="3.5"/><rect class="cls-4" x="318.42" y="396.16" width="76.46" height="3.5"/><path class="cls-3" d="M168.1,51.09a291.54,291.54,0,0,1-49.73-4l-1.24-.21V45.61c0-5.77-2.6-12.32-5.11-18.65-2.61-6.6-5.31-13.41-5.31-19.76V5.42l1.75.3A314.63,314.63,0,0,0,162,9.9c24.41,0,49.27-2.13,73.3-4.2s49-4.2,73.57-4.2a317.27,317.27,0,0,1,54,4.22l5.2.89-4.89,2C353.8,12.38,344.25,16.76,334,22c10.33,6.63,20,13.32,29.46,20.41l5,3.73-6.14-1.05a287.68,287.68,0,0,0-49.22-4c-24.47,0-48.82,2.54-72.36,5S192.73,51.09,168.1,51.09Z"/><path class="cls-2" d="M308.84,3A317.25,317.25,0,0,1,362.6,7.2c-10.52,4.26-21,9.18-31.56,14.62,10.52,6.69,21,13.88,31.56,21.75a290.83,290.83,0,0,0-49.47-4c-49.1,0-95.93,10-145,10a290.75,290.75,0,0,1-49.47-4c0-12.12-10.42-26.29-10.42-38.41A317.25,317.25,0,0,0,162,11.4c49,0,97.92-8.4,146.87-8.4m0-3c-24.61,0-49.56,2.14-73.69,4.21S186.32,8.4,162,8.4a312.52,312.52,0,0,1-53.25-4.16l-3.51-.6V7.2c0,6.63,2.76,13.59,5.42,20.31,2.46,6.2,5,12.61,5,18.1v2.53l2.49.43a292.43,292.43,0,0,0,50,4c24.7,0,49.17-2.55,72.83-5,23.5-2.45,47.8-5,72.2-5a287.62,287.62,0,0,1,49,3.93l12.29,2.11-10-7.46c-8.83-6.61-17.81-12.87-27.35-19,9.3-4.67,18.07-8.66,26.67-12.14L373.5,6,363.11,4.24A319.39,319.39,0,0,0,308.84,0Z"/><path class="cls-4" d="M118.94,50.52a5,5,0,0,1-4.8-3.61l-11-38.23A5,5,0,0,1,112.7,5.9l11,38.24a5,5,0,0,1-3.42,6.19,4.88,4.88,0,0,1-1.31.19Z"/><path class="cls-2" d="M107.89,3.29a4,4,0,0,1,3.85,2.89l11.05,38.23a4,4,0,0,1-2.73,5,3.81,3.81,0,0,1-1,.15h-.07a4,4,0,0,1-3.84-2.89l-11-38.24a4,4,0,0,1,2.73-4.95,3.92,3.92,0,0,1,1.11-.16m0-2h0a6.21,6.21,0,0,0-1.66.23A6,6,0,0,0,102.13,9l11.05,38.24a6,6,0,0,0,5.76,4.34h.1a5.57,5.57,0,0,0,1.57-.23,6,6,0,0,0,4.1-7.43l-11-38.24a6,6,0,0,0-5.77-4.33Z"/><line class="cls-6" x1="108.21" y1="7.2" x2="170.96" y2="227.3"/></g><g id="Calque_2" data-name="Calque 2"><text class="cls-7" transform="matrix(1, 0.07, -0.07, 1, 126.63, 42.55)"> </text><text class="cls-7" transform="matrix(1, 0.04, -0.04, 1, 134.74, 43.17)">S</text><text class="cls-7" transform="matrix(1, 0, 0, 1, 154.83, 44.09)">U</text><text class="cls-7" transform="translate(179.11 43.97) rotate(-2.47)">R</text><text class="cls-7" transform="translate(200.01 43) rotate(-3.68)"> </text><text class="cls-7" transform="translate(208.04 42.48) rotate(-4.27)"> </text><text class="cls-7" transform="translate(216.03 41.95) rotate(-5.28)">D</text><text class="cls-7" transform="matrix(0.99, -0.1, 0.1, 0.99, 238.74, 39.76)">E</text><text class="cls-7" transform="translate(257.88 37.77) rotate(-4.48)"></text><text class="cls-7" transform="translate(281.77 35.92) rotate(-2.48)">L</text><text class="cls-7" transform="matrix(1, 0, 0, 1, 300.22, 35.09)">E</text></g></svg>